<?xml version="1.0" standalone="no"?>
<!DOCTYPE svg PUBLIC "-//W3C//DTD SVG 20010904//EN"
 "http://www.w3.org/TR/2001/REC-SVG-20010904/DTD/svg10.dtd">
<svg version="1.0" xmlns="http://www.w3.org/2000/svg"
 width="1024.000000pt" height="1024.000000pt" viewBox="0 0 1024.000000 1024.000000"
 preserveAspectRatio="xMidYMid meet">

<g transform="translate(0.000000,1024.000000) scale(0.100000,-0.100000)"
fill="#000000" stroke="none">
<path d="M0 5120 l0 -5120 5120 0 5120 0 0 5120 0 5120 -5120 0 -5120 0 0
-5120z m7951 3993 c81 -40 140 -102 180 -188 81 -172 27 -456 -128 -673 -56
-79 -102 -132 -114 -132 -5 0 -9 18 -9 40 0 48 -30 112 -73 157 -36 38 -48 35
-40 -12 8 -47 -14 -183 -42 -266 -36 -107 -103 -205 -210 -308 l-96 -91 -87
80 c-319 293 -697 506 -1134 639 -402 122 -736 169 -1103 158 -720 -23 -1390
-258 -1925 -677 -69 -54 -147 -121 -175 -149 -27 -28 -54 -51 -60 -51 -23 0
-185 169 -233 243 -82 125 -114 231 -116 374 -1 95 -9 102 -56 46 -32 -39 -60
-116 -60 -165 0 -15 -4 -28 -8 -28 -14 0 -85 88 -140 173 -112 171 -168 418
-131 577 22 96 89 193 167 242 79 49 -62 47 2822 45 l2705 -2 66 -32z m-5963
-543 c-6 -30 -8 -111 -5 -180 12 -301 139 -643 347 -935 57 -81 70 -96 166
-191 69 -68 140 -123 280 -216 217 -144 279 -203 329 -311 28 -61 56 -182 38
-163 -3 3 -12 1 -20 -5 -10 -9 -13 -8 -13 5 0 9 5 16 10 16 7 0 7 7 0 21 -7
11 -9 23 -6 26 3 3 -10 22 -29 42 -19 20 -35 39 -35 44 0 4 -5 7 -11 7 -8 0
-8 -4 1 -15 6 -8 9 -19 6 -24 -4 -5 -1 -13 5 -17 8 -4 9 -3 5 4 -13 21 5 13
25 -10 23 -29 24 -38 2 -38 -13 0 -14 -3 -5 -12 16 -16 15 -31 0 -22 -7 4 -5
-2 5 -13 9 -11 14 -23 11 -26 -4 -4 -1 -13 6 -22 7 -9 11 -18 8 -20 -2 -3 -25
23 -50 58 -26 34 -81 99 -123 145 -77 82 -398 382 -410 382 -16 0 99 -135 286
-336 67 -72 14 -36 -159 108 -31 26 -60 44 -65 41 -9 -6 130 -142 146 -143 4
0 7 -7 7 -15 0 -22 -21 -18 -27 4 -3 11 -12 22 -21 24 -10 3 -29 14 -44 24
-22 13 -30 15 -40 5 -6 -6 -8 -15 -4 -19 4 -4 11 -1 17 7 8 13 12 11 28 -7 11
-13 24 -23 30 -23 16 0 13 -18 -5 -28 -14 -8 -13 -10 2 -23 16 -12 17 -12 11
3 -3 10 -3 19 1 22 10 6 56 -33 48 -41 -4 -4 -11 -1 -16 7 -5 8 -12 11 -16 7
-4 -4 0 -15 9 -24 13 -13 19 -14 31 -4 8 7 20 10 26 6 17 -10 11 -25 -10 -25
-11 0 -20 -4 -20 -10 0 -5 6 -7 14 -4 9 3 17 -3 21 -15 3 -12 10 -21 14 -21 4
0 21 -11 37 -25 16 -14 37 -25 47 -25 10 0 17 -8 17 -20 0 -11 -4 -20 -10 -20
-5 0 -10 5 -10 10 0 6 -6 10 -12 9 -7 -1 -22 -1 -33 0 -16 1 -17 3 -5 11 8 5
11 12 7 16 -3 4 -13 2 -21 -5 -26 -22 -199 81 -338 203 -100 87 -157 150 -254
277 -203 267 -304 475 -338 689 -39 244 -29 474 29 673 25 88 82 224 89 216 2
-2 0 -29 -6 -59z m6448 -135 c86 -257 85 -600 -2 -860 -30 -91 -133 -300 -195
-396 -87 -135 -259 -322 -394 -430 -74 -60 -223 -152 -265 -164 -14 -4 -30
-12 -37 -17 -8 -6 -20 -4 -37 7 -25 17 -26 16 -37 -9 -13 -28 -29 -35 -29 -12
0 8 7 16 15 20 8 3 14 11 13 18 -2 8 5 12 20 10 12 -2 22 1 22 6 0 4 16 14 35
22 23 9 32 17 25 24 -11 11 16 46 36 46 16 0 37 37 29 49 -7 13 5 42 15 36 9
-6 24 13 25 30 0 6 8 9 18 9 10 -1 17 5 17 17 0 22 11 24 28 7 9 -9 12 -9 12
0 0 7 -4 12 -9 12 -17 0 1 38 20 43 21 6 27 26 6 23 -12 -1 -52 -34 -115 -93
-18 -18 -36 -33 -39 -33 -2 0 -20 -12 -39 -26 -19 -15 -36 -25 -38 -23 -4 4
57 74 143 164 53 55 151 173 151 181 0 13 -226 -191 -340 -306 -131 -132 -142
-146 -193 -222 -17 -26 -35 -44 -39 -42 -5 3 -6 9 -3 14 10 16 11 131 1 137
-5 3 -6 1 -3 -4 4 -6 1 -23 -7 -38 -10 -19 -16 -23 -22 -14 -4 7 -3 14 4 17 8
2 8 8 0 22 -10 15 -6 30 20 83 44 89 167 206 298 283 54 32 128 78 164 103
101 70 267 242 339 351 137 209 254 479 298 690 18 90 25 333 11 420 l-8 45
26 -48 c14 -26 40 -95 60 -152z m-256 -322 c-16 -92 -94 -357 -129 -440 -62
-145 -151 -273 -264 -379 -81 -77 -128 -107 -134 -86 -3 6 -10 12 -16 12 -8 0
-7 -4 1 -12 17 -17 15 -28 -4 -28 -8 0 -12 5 -9 10 3 6 1 10 -5 10 -7 0 -9 -8
-5 -20 9 -28 -3 -25 -32 8 -19 22 -25 24 -33 12 -5 -8 -11 -12 -14 -9 -3 3 6
19 22 36 15 17 39 45 55 62 15 17 27 34 27 39 0 4 27 34 60 67 33 33 60 65 60
72 0 7 4 13 10 13 5 0 17 14 26 32 l17 32 -49 -41 c-92 -77 -341 -328 -383
-386 -23 -32 -61 -93 -84 -135 -27 -49 -43 -71 -45 -59 -4 20 22 105 49 159
27 53 24 55 -15 12 -19 -21 -32 -43 -29 -48 4 -5 -6 -6 -22 -2 -26 7 -27 6
-15 -10 13 -14 12 -16 -5 -12 -14 3 -19 11 -18 26 2 12 -2 22 -7 22 -6 0 -10
-4 -10 -9 0 -5 -3 -16 -6 -24 -3 -10 2 -18 15 -22 12 -3 21 -11 21 -16 0 -6
-13 -1 -29 10 -24 18 -29 27 -25 53 12 96 113 216 375 446 111 97 312 303 411
422 55 67 142 198 200 306 l43 79 3 -70 c2 -38 -2 -98 -8 -132z m-5961 104
c56 -104 111 -183 219 -316 106 -130 326 -351 447 -450 199 -164 292 -275 320
-381 l6 -25 -20 25 c-22 27 -28 21 -11 -10 8 -15 7 -18 -3 -15 -7 3 -23 -4
-36 -16 -12 -11 -25 -18 -29 -14 -4 4 -1 10 6 12 21 8 13 25 -8 18 -17 -5 -19
-2 -17 16 2 13 9 25 15 27 7 2 12 9 12 15 0 6 -10 1 -23 -11 -22 -21 -23 -21
-35 -2 -7 11 -8 20 -3 20 5 0 11 -5 13 -12 3 -8 7 -6 11 4 5 13 0 16 -24 13
-17 -3 -27 0 -24 5 4 6 1 10 -5 10 -7 0 -10 -3 -8 -7 2 -5 20 -40 40 -79 34
-66 58 -144 44 -144 -4 0 -11 10 -16 23 -18 40 -64 115 -115 187 -52 73 -421
448 -431 438 -8 -8 35 -71 100 -148 31 -36 56 -68 56 -72 0 -5 -8 -8 -18 -8
-10 0 -19 -7 -19 -15 0 -8 9 -15 20 -15 13 0 17 -5 13 -15 -3 -9 0 -15 9 -15
20 0 19 26 -1 34 -8 3 -12 10 -9 16 10 15 25 12 32 -7 4 -10 11 -21 16 -24 6
-4 -6 -23 -25 -43 l-36 -37 -58 49 c-213 180 -313 349 -412 702 -17 58 -35
129 -41 158 -12 60 -15 192 -3 192 4 0 27 -37 51 -83z m2986 -133 c216 -56
334 -256 260 -442 -18 -45 -66 -82 -106 -82 -30 0 -69 26 -69 45 0 37 -89 46
-148 16 -94 -49 -146 -143 -147 -267 0 -75 3 -86 42 -165 30 -59 75 -122 152
-212 117 -138 169 -224 196 -327 22 -83 23 -225 1 -310 -21 -85 -84 -211 -140
-281 -40 -51 -162 -156 -171 -148 -1 2 19 42 46 89 27 47 63 123 81 170 31 80
32 92 32 220 0 117 -3 143 -22 191 -36 89 -90 166 -208 291 -124 132 -174 208
-210 325 -23 71 -26 96 -22 180 3 85 8 107 36 167 43 92 88 145 178 212 82 60
98 86 84 135 -22 76 -117 127 -214 115 l-51 -6 35 29 c77 65 236 89 365 55z
m-565 -62 c0 -37 -25 -71 -66 -88 -43 -18 -44 -18 -44 9 1 32 22 65 56 88 40
26 54 24 54 -9z m1118 -29 c31 -23 72 -78 72 -95 0 -14 -51 -9 -86 8 -42 20
-74 63 -74 98 0 24 3 26 28 20 15 -4 42 -18 60 -31z m-1542 2 c10 -40 -5 -95
-33 -121 -33 -30 -41 -30 -49 1 -10 39 5 95 31 121 31 31 43 30 51 -1z m1961
-7 c32 -35 43 -63 43 -107 0 -46 1 -45 -34 -30 -30 14 -56 65 -56 111 0 53 14
61 47 26z m-2212 -211 c17 -24 20 -77 5 -77 -24 0 -63 26 -76 51 -15 29 -19
71 -8 82 9 8 59 -28 79 -56z m2505 28 c0 -38 -26 -83 -59 -99 -34 -18 -41 -13
-41 27 0 20 11 40 34 63 41 41 66 44 66 9z m-1921 -72 c122 -71 93 -271 -34
-239 -34 9 -52 48 -37 81 10 21 9 26 -8 35 -53 29 -133 -4 -167 -70 -27 -51
-29 -97 -8 -168 44 -148 158 -263 349 -353 l81 -38 -46 0 c-65 -1 -189 33
-262 71 -35 18 -93 63 -135 104 -95 94 -124 157 -130 276 -4 77 -2 92 22 145
41 89 113 154 206 184 40 13 122 0 169 -28z m2262 0 l42 -16 -26 -22 c-33 -30
-90 -40 -125 -23 -37 18 -34 39 8 60 43 22 49 22 101 1z m-3150 -11 c13 -11
20 -25 16 -34 -8 -23 -70 -31 -110 -14 -39 16 -51 30 -43 51 8 23 108 20 137
-3z m2395 -30 c48 -24 100 -81 122 -131 9 -21 16 -67 16 -111 1 -66 -3 -84
-31 -141 -86 -174 -290 -279 -542 -279 -211 0 -377 75 -463 209 -41 66 -35 78
18 37 61 -47 133 -80 230 -107 105 -29 281 -32 369 -5 220 66 338 228 262 361
-26 46 -57 65 -108 65 -47 0 -66 -21 -50 -56 9 -20 8 -32 -1 -52 -26 -54 -103
-35 -135 33 -30 63 10 144 92 185 53 27 161 23 221 -8z m-4176 -373 c57 -84
92 -127 293 -356 242 -276 315 -334 627 -497 200 -104 259 -147 313 -228 35
-54 74 -155 63 -165 -3 -3 -9 3 -13 15 -5 11 -12 21 -18 22 -5 1 -9 11 -7 23
2 17 0 19 -7 7 -8 -12 -13 -11 -28 6 -10 11 -40 40 -67 65 l-50 44 28 -38 c23
-30 25 -36 10 -30 -16 6 -17 5 -4 -9 8 -8 20 -14 26 -11 13 5 40 -25 30 -34
-3 -3 -6 -1 -6 5 0 7 -5 12 -11 12 -5 0 -7 -4 -4 -10 3 -5 2 -10 -3 -10 -8 0
-102 83 -304 270 -50 47 -88 78 -83 70 5 -8 26 -41 47 -73 21 -32 38 -59 38
-60 0 -1 -14 -2 -30 -3 -30 -1 -41 11 -17 19 8 3 3 11 -13 25 -21 17 -26 18
-30 5 -3 -8 -10 -14 -15 -13 -5 1 -11 -3 -13 -9 -5 -15 11 -14 26 1 6 6 15 8
19 4 4 -4 3 -10 -2 -14 -6 -4 -16 -20 -24 -35 -10 -19 -20 -26 -30 -21 -9 4
-33 13 -54 21 -68 24 -285 153 -361 213 -303 240 -466 556 -466 900 0 129 6
133 54 37 24 -46 62 -112 86 -148z m6720 -54 c-49 -336 -242 -611 -570 -810
-111 -67 -286 -155 -310 -155 -9 0 -21 -5 -27 -11 -8 -8 -13 -8 -18 0 -3 6 1
14 9 17 9 3 16 10 16 15 0 9 11 24 64 85 15 19 23 34 17 34 -6 0 -11 -4 -11
-10 0 -5 -7 -10 -15 -10 -8 0 -15 -7 -15 -15 0 -8 -7 -15 -16 -15 -8 0 -13 -4
-10 -8 3 -5 -11 -26 -30 -47 -18 -21 -35 -37 -36 -34 -29 46 -29 71 -1 47 7
-6 15 -9 16 -7 1 2 12 18 25 36 32 46 30 75 -3 39 -16 -17 -22 -32 -18 -44 6
-15 5 -15 -12 1 -18 18 -18 20 3 63 12 25 22 47 22 51 0 3 -46 -39 -102 -95
-136 -133 -242 -224 -247 -210 -2 5 3 14 10 19 8 5 10 9 5 9 -6 0 3 14 19 30
16 17 25 30 21 30 -4 0 -18 -12 -32 -27 -19 -21 -27 -24 -37 -14 -9 9 -9 14 3
21 8 5 11 12 7 16 -11 11 -86 -74 -115 -131 -30 -60 -39 -46 -18 29 36 124
143 221 344 310 223 99 390 214 558 388 216 223 380 436 470 611 l39 77 3
-103 c2 -56 -2 -138 -8 -182z m-4916 155 c65 -60 89 -125 84 -222 -5 -87 -21
-121 -33 -69 -9 41 -41 78 -103 121 -59 40 -82 75 -82 124 0 42 36 86 70 86
11 0 40 -18 64 -40z m3061 34 c21 -8 45 -56 45 -91 0 -35 -30 -85 -65 -109
-62 -43 -104 -87 -110 -114 -10 -46 -23 -45 -36 2 -16 62 -5 142 31 215 40 80
88 115 135 97z m-3965 -214 c0 -5 -7 -10 -16 -10 -8 0 -12 5 -9 10 3 6 10 10
16 10 5 0 9 -4 9 -10z m-37 -16 c7 -8 -18 -34 -32 -34 -8 0 -7 7 1 20 13 21
21 24 31 14z m70 -21 c14 -16 14 -20 0 -38 -15 -20 -15 -19 -8 3 5 17 2 27
-12 37 -10 8 -13 15 -7 15 6 0 18 -8 27 -17z m-59 -18 c-4 -8 -11 -15 -16 -15
-6 0 -5 6 2 15 7 8 14 15 16 15 2 0 1 -7 -2 -15z m4815 -31 c-17 -21 -31 -17
-19 6 6 11 15 18 21 14 6 -4 6 -11 -2 -20z m-4789 6 c0 -5 -4 -10 -10 -10 -5
0 -10 5 -10 10 0 6 5 10 10 10 6 0 10 -4 10 -10z m4219 -100 c95 -235 107
-543 30 -774 -29 -86 -71 -164 -130 -242 -61 -82 -167 -186 -183 -181 -25 8
-15 41 27 90 64 76 187 281 187 313 0 15 -19 -1 -29 -23 -16 -34 -131 -208
-164 -246 -13 -16 21 62 76 172 54 110 97 206 95 212 -2 7 -46 -59 -98 -147
-116 -199 -167 -270 -244 -345 -186 -183 -424 -281 -776 -319 -52 -6 -110 -13
-127 -16 -55 -9 -37 11 45 49 52 24 121 43 214 61 148 29 262 62 337 101 53
26 165 107 220 159 53 49 146 178 233 325 44 75 93 154 108 176 42 63 46 72
20 50 -26 -22 -91 -91 -102 -108 -15 -25 -17 3 -4 70 9 51 28 96 70 169 59
104 89 183 101 273 7 52 7 53 -16 46 -103 -31 -207 -165 -224 -288 -8 -50 -24
-74 -26 -35 0 15 -3 18 -6 8 -3 -8 -11 -18 -17 -22 -8 -6 -6 -11 4 -18 10 -6
11 -10 3 -10 -7 0 -20 11 -29 25 -16 25 -16 62 2 142 l6 28 -21 -25 c-12 -14
-24 -35 -27 -47 -4 -15 -11 -20 -22 -15 -15 5 -15 4 -3 -11 12 -15 11 -17 -13
-17 -14 0 -26 -5 -26 -10 0 -6 6 -10 14 -8 8 2 14 -1 13 -7 -3 -14 -37 -13
-37 2 0 7 -4 13 -10 13 -6 0 -10 -26 -10 -58 0 -47 -4 -59 -21 -70 -12 -7 -24
-11 -27 -7 -4 4 -7 52 -7 108 0 95 2 107 32 168 69 139 196 220 441 279 31 8
48 20 65 45 12 19 25 31 28 27 3 -4 16 -32 28 -62z m-3596 31 c14 -24 28 -32
75 -42 86 -17 221 -67 274 -100 147 -94 225 -266 188 -418 -14 -61 -33 -56
-45 12 -7 34 -9 37 -12 17 -6 -33 -19 -45 -26 -26 -4 9 -2 16 3 16 5 0 7 7 3
16 -4 10 1 22 12 30 16 12 16 18 7 46 l-12 33 5 -32 c3 -25 1 -33 -10 -33 -8
0 -15 9 -15 21 0 11 -4 17 -10 14 -6 -4 -8 -15 -5 -26 4 -11 2 -19 -4 -19 -6
0 -11 6 -11 13 0 16 -65 156 -78 169 -6 6 -4 -9 4 -32 20 -56 28 -123 20 -155
-6 -22 -11 -26 -39 -23 -31 3 -32 5 -39 60 -11 85 -43 150 -102 206 -52 49
-133 99 -144 88 -3 -3 4 -43 15 -88 21 -84 74 -206 124 -287 27 -42 45 -122
37 -171 -3 -20 -9 -16 -52 39 -26 34 -50 60 -53 57 -6 -6 206 -363 259 -434
118 -160 311 -299 501 -361 37 -13 67 -25 67 -28 0 -16 -180 7 -243 30 -130
50 -297 177 -394 301 -53 68 -243 376 -243 395 0 5 -7 11 -15 15 -8 3 -15 4
-15 2 0 -15 135 -284 166 -332 21 -32 43 -65 47 -71 4 -7 4 -13 -2 -13 -15 0
-118 136 -169 223 -25 42 -47 76 -49 74 -20 -21 146 -286 215 -341 15 -12 22
-26 19 -38 -4 -15 -3 -17 8 -8 22 18 30 -9 9 -31 -19 -18 -20 -18 -47 4 -174
135 -280 299 -343 527 -28 102 -25 354 5 480 25 102 78 250 90 250 3 0 14 -13
24 -29z m-193 -71 c0 -5 -4 -10 -9 -10 -6 0 -13 5 -16 10 -3 6 1 10 9 10 9 0
16 -4 16 -10z m-40 -10 c0 -5 -2 -10 -4 -10 -3 0 -8 5 -11 10 -3 6 -1 10 4 10
6 0 11 -4 11 -10z m-10 -50 c0 -5 -4 -10 -10 -10 -5 0 -10 5 -10 10 0 6 5 10
10 10 6 0 10 -4 10 -10z m-1435 -174 c55 -83 181 -206 284 -274 46 -31 143
-86 214 -122 l129 -65 18 -50 c9 -27 21 -58 25 -69 7 -16 5 -17 -16 -12 -13 4
-95 42 -181 84 -147 72 -184 81 -93 23 22 -14 70 -47 106 -73 37 -27 72 -48
78 -48 14 0 14 -13 0 -27 -6 -6 -8 -16 -4 -23 5 -8 11 -6 20 7 7 10 17 15 21
10 4 -4 2 -7 -4 -7 -14 0 -16 -36 -3 -44 5 -3 11 4 14 16 4 12 9 19 12 16 9
-8 -13 -48 -25 -48 -6 0 -10 4 -10 9 0 5 -17 7 -38 4 -72 -10 -282 78 -371
154 -128 109 -225 332 -237 543 -4 80 -3 92 8 76 7 -10 31 -46 53 -80z m2895
64 c100 -16 196 -68 269 -145 33 -36 61 -70 61 -75 0 -5 -39 12 -86 37 -74 39
-97 47 -159 51 -105 7 -174 -16 -235 -77 -71 -71 -93 -137 -88 -272 l3 -106
-26 -1 c-24 -1 -28 6 -44 58 -13 43 -16 81 -13 149 4 80 8 99 40 161 38 74 36
90 -5 41 -78 -93 -110 -294 -62 -393 15 -31 12 -35 -25 -38 -38 -3 -50 -1 -50
10 0 5 8 7 18 4 12 -4 9 1 -8 16 -24 22 -25 26 -24 151 0 134 -5 142 -31 43
-19 -72 -19 -153 -1 -222 12 -48 12 -52 -5 -52 -10 0 -21 -4 -24 -10 -24 -39
-67 69 -73 181 -11 216 115 405 312 469 84 27 167 34 256 20z m4055 -159 c-39
-183 -108 -325 -200 -416 -84 -84 -275 -175 -365 -175 -14 0 -31 -5 -38 -12
-8 -8 -20 -4 -47 16 -19 15 -35 29 -35 32 0 7 38 -15 45 -27 5 -7 15 -5 31 6
13 8 24 12 24 9 0 -4 8 0 18 8 9 9 26 18 37 21 16 4 14 5 -7 6 -14 0 -28 -5
-30 -11 -3 -9 -12 -8 -32 5 -14 10 -24 22 -21 28 4 5 11 7 16 4 5 -4 9 -2 9 4
0 6 11 13 25 17 14 3 25 9 25 13 0 4 12 14 28 22 15 8 32 17 37 22 6 4 31 24
58 44 26 20 45 38 43 40 -2 2 -30 -9 -62 -25 -88 -44 -264 -115 -270 -109 -3
2 8 35 25 72 27 59 35 68 73 83 252 98 468 257 579 426 l44 67 3 -47 c2 -26
-4 -82 -13 -123z m-2733 148 c119 -25 259 -132 307 -234 67 -141 73 -295 16
-411 -29 -58 -42 -65 -70 -34 -17 18 -17 22 0 91 20 81 16 173 -11 252 -17 52
-40 77 -27 30 14 -49 9 -245 -6 -281 -12 -28 -16 -31 -23 -18 -10 18 -38 22
-38 5 0 -5 -4 -8 -9 -5 -5 4 -5 24 1 48 15 63 14 205 -1 266 -8 32 -29 73 -52
103 -46 58 -70 66 -35 12 42 -65 59 -145 53 -252 -5 -112 -11 -131 -41 -132
-16 -1 -17 -2 -3 -6 9 -2 17 -9 17 -15 0 -5 -7 -7 -16 -4 -9 3 -19 6 -23 6 -4
0 -7 51 -7 113 1 130 -9 166 -65 237 -57 73 -140 109 -200 88 -36 -12 -49 -34
-42 -70 4 -23 1 -28 -21 -34 -43 -10 -76 18 -76 67 0 50 21 91 62 123 79 59
193 79 310 55z m1682 -94 c3 -9 0 -15 -9 -15 -8 0 -15 7 -15 15 0 8 4 15 9 15
5 0 11 -7 15 -15z m-4854 -15 c0 -5 -4 -10 -10 -10 -5 0 -10 5 -10 10 0 6 5
10 10 10 6 0 10 -4 10 -10z m4825 -10 c3 -5 -1 -10 -9 -10 -9 0 -16 5 -16 10
0 6 4 10 9 10 6 0 13 -4 16 -10z m-4795 -10 c0 -5 -4 -10 -10 -10 -5 0 -10 5
-10 10 0 6 5 10 10 10 6 0 10 -4 10 -10z m4760 -11 c0 -5 -4 -9 -10 -9 -5 0
-10 7 -10 16 0 8 5 12 10 9 6 -3 10 -10 10 -16z m-24 -46 c-10 -10 -19 5 -10
18 6 11 8 11 12 0 2 -7 1 -15 -2 -18z m-4726 -8 c0 -8 -4 -15 -9 -15 -5 0 -11
7 -15 15 -3 9 0 15 9 15 8 0 15 -7 15 -15z m30 -22 c0 -20 -3 -24 -11 -16 -7
7 -9 19 -6 27 10 24 17 19 17 -11z m4660 7 c0 -5 -4 -10 -10 -10 -5 0 -10 5
-10 10 0 6 5 10 10 10 6 0 10 -4 10 -10z m-4620 -40 c0 -5 -2 -10 -4 -10 -3 0
-8 5 -11 10 -3 6 -1 10 4 10 6 0 11 -4 11 -10z m4350 0 c0 -5 -4 -10 -10 -10
-5 0 -10 5 -10 10 0 6 5 10 10 10 6 0 10 -4 10 -10z m-3390 -16 c0 -8 -5 -12
-10 -9 -6 4 -8 11 -5 16 9 14 15 11 15 -7z m2685 -9 c0 -11 -8 -21 -17 -23
-10 -2 -18 1 -18 7 0 6 5 10 11 9 6 -2 13 2 16 9 3 7 -3 9 -16 6 -13 -3 -21
-1 -21 7 0 6 10 10 23 8 14 -2 22 -10 22 -23z m-1770 -24 c67 -38 98 -143 59
-199 -23 -33 -68 -27 -72 10 -5 45 -25 53 -70 28 -24 -14 -51 -20 -73 -18 -28
2 -37 10 -52 40 -54 111 88 206 208 139z m2755 19 c0 -5 -7 -10 -15 -10 -8 0
-15 5 -15 10 0 6 7 10 15 10 8 0 15 -4 15 -10z m-4360 -21 c0 -5 -4 -9 -10 -9
-5 0 -10 7 -10 16 0 8 5 12 10 9 6 -3 10 -10 10 -16z m-20 -49 c0 -5 -2 -10
-4 -10 -3 0 -8 5 -11 10 -3 6 -1 10 4 10 6 0 11 -4 11 -10z m1912 -145 c28
-87 29 -204 4 -290 -29 -98 -104 -232 -168 -301 -90 -95 -216 -171 -320 -191
-30 -5 -27 -1 42 54 155 124 255 257 321 428 43 111 59 193 59 315 l0 105 20
-25 c11 -14 30 -56 42 -95z m-1205 69 c58 -33 85 -72 147 -211 65 -147 140
-260 209 -314 51 -41 160 -99 185 -99 6 0 12 -5 12 -11 0 -16 -88 -3 -153 21
-128 49 -201 122 -321 319 -88 145 -124 181 -77 79 16 -35 45 -99 65 -143 l36
-80 -46 49 c-99 107 -204 281 -204 337 0 39 16 68 43 79 27 11 50 5 104 -26z
m2800 4 c33 -31 31 -89 -7 -156 -40 -73 -134 -202 -176 -243 -41 -39 -43 -50
30 125 25 61 44 112 41 114 -9 10 -27 -16 -87 -125 -36 -67 -86 -142 -118
-176 -53 -59 -152 -132 -170 -125 -4 2 19 39 52 83 78 103 114 168 159 282 52
130 83 180 137 214 56 35 106 38 139 7z m-870 -17 c49 -23 63 -45 63 -102 0
-90 -83 -121 -146 -54 -18 19 -41 35 -51 35 -31 0 -93 -49 -124 -98 l-29 -46
0 40 c0 48 47 149 86 186 62 57 130 71 201 39z m2177 -152 c-71 -132 -231
-271 -406 -353 -134 -62 -198 -77 -198 -45 0 6 7 8 16 5 8 -3 29 4 47 17 18
12 34 23 36 24 2 1 -1 9 -7 16 -7 8 -9 17 -5 20 11 12 23 8 23 -8 0 -8 5 -15
10 -15 12 0 13 20 2 37 -7 10 -14 10 -35 0 -29 -13 -33 -22 -17 -32 6 -4 8
-11 4 -16 -3 -5 -10 -7 -15 -3 -5 3 -7 10 -4 15 4 5 0 9 -8 9 -8 0 -18 -7 -21
-16 -6 -15 -26 -11 -26 5 0 4 22 23 49 42 28 18 49 35 47 36 -7 7 -52 -16 -75
-38 -16 -15 -26 -19 -29 -11 -2 7 -8 10 -12 7 -5 -3 -6 -13 -3 -22 5 -12 2
-15 -10 -10 -14 5 -16 2 -11 -18 4 -15 2 -25 -5 -25 -6 0 -11 5 -11 10 0 19
-16 10 -33 -20 -21 -36 -37 -39 -37 -7 0 34 53 119 111 175 68 67 131 99 329
167 91 32 201 74 245 95 44 20 82 36 84 34 1 -1 -14 -35 -35 -75z m-5264 57
c0 -8 -4 -18 -10 -21 -5 -3 -10 3 -10 14 0 12 5 21 10 21 6 0 10 -6 10 -14z
m70 4 c0 -5 -9 -10 -21 -10 -11 0 -17 5 -14 10 3 6 13 10 21 10 8 0 14 -4 14
-10z m1780 -97 c25 -23 62 -70 81 -105 32 -59 34 -68 34 -158 -1 -75 -5 -105
-22 -142 -27 -59 -86 -124 -134 -149 -54 -27 -67 -24 -36 9 14 15 41 59 59 97
26 56 33 86 36 148 5 95 -10 140 -81 246 -40 61 -77 136 -77 158 0 7 91 -60
140 -104z m-1905 2 c284 -112 274 -108 348 -163 80 -60 155 -166 143 -198 -5
-12 -10 -13 -27 -4 -13 7 -18 17 -15 27 4 11 2 13 -9 9 -9 -3 -15 0 -15 7 0 7
-14 26 -32 43 l-32 29 22 -29 c34 -45 26 -54 -15 -15 -39 36 -98 79 -108 79
-3 0 11 -15 32 -32 51 -44 104 -101 99 -106 -3 -2 -17 8 -33 22 -15 14 -34 26
-42 26 -8 0 -12 3 -8 6 3 3 -4 15 -15 26 -11 11 -23 16 -26 12 -4 -3 -1 -9 6
-11 6 -3 12 -9 12 -14 0 -6 -5 -7 -12 -3 -7 4 -8 3 -4 -4 4 -7 13 -12 20 -12
20 0 62 -53 46 -58 -8 -3 -5 -9 11 -18 37 -21 8 -16 -70 10 -172 58 -338 177
-439 314 -53 72 -98 152 -84 152 4 0 115 -43 247 -95z m5014 61 c-3 -3 -11 5
-18 17 -13 21 -12 21 5 5 10 -10 16 -20 13 -22z m-4841 -2 c-2 -1 -16 0 -33 3
-25 5 -27 7 -10 13 17 6 52 -7 43 -16z m-88 12 c0 -3 -4 -8 -10 -11 -5 -3 -10
-1 -10 4 0 6 5 11 10 11 6 0 10 -2 10 -4z m4900 -10 c0 -3 -4 -8 -10 -11 -5
-3 -10 -1 -10 4 0 6 5 11 10 11 6 0 10 -2 10 -4z m-293 -72 c-9 -9 -28 6 -21
18 4 6 10 6 17 -1 6 -6 8 -13 4 -17z m-25 -19 c0 -5 -5 -11 -11 -13 -6 -2 -11
4 -11 13 0 9 5 15 11 13 6 -2 11 -8 11 -13z m28 -18 c0 -2 -10 -12 -21 -23
-22 -19 -22 -19 -10 4 10 18 31 31 31 19z m-5240 -94 c67 -25 184 -54 324 -78
70 -12 233 -81 221 -93 -2 -2 -27 1 -57 7 -29 5 -80 12 -113 15 -33 3 -49 3
-35 0 14 -3 63 -14 110 -26 47 -11 94 -22 105 -23 34 -4 35 -5 35 -16 0 -7
-26 -9 -82 -5 -57 4 -78 3 -68 -4 13 -8 12 -10 -4 -10 -11 0 -17 -3 -13 -6 5
-5 51 -10 131 -13 42 -1 28 -9 -30 -17 -87 -11 -119 -11 -132 -1 -15 12 -27 3
-17 -14 6 -9 36 -10 119 -4 190 14 215 12 309 -19 48 -16 87 -33 87 -38 0 -11
-13 -10 -44 2 -18 6 -26 6 -26 -1 0 -6 -8 -8 -19 -4 -21 6 -46 -18 -36 -36 5
-8 1 -9 -13 -5 -12 4 -26 1 -35 -9 -17 -17 -31 -20 -22 -5 3 6 4 10 1 10 -2 0
-13 3 -23 7 -15 6 -16 4 -6 -9 35 -42 -237 -3 -372 53 -108 45 -248 140 -339
232 -74 75 -146 168 -146 189 0 4 28 -6 62 -23 35 -18 92 -43 128 -56z m5190
78 c0 -6 -4 -13 -10 -16 -5 -3 -10 1 -10 9 0 9 5 16 10 16 6 0 10 -4 10 -9z
m788 -3 c14 -14 16 -28 2 -28 -5 0 -14 9 -20 20 -12 22 -1 27 18 8z m377 -37
c-85 -169 -313 -336 -551 -406 -136 -40 -328 -59 -277 -27 9 6 7 11 -7 20 -12
7 -21 8 -25 2 -4 -6 -10 -8 -15 -5 -5 3 -11 1 -15 -5 -8 -13 -35 -13 -35 0 0
6 9 10 20 10 11 0 20 5 20 10 0 6 8 11 18 11 16 1 16 2 0 6 -10 2 -18 9 -18
14 0 5 -10 1 -22 -11 -12 -11 -27 -20 -34 -20 -7 0 -14 -5 -16 -12 -3 -8 -14
-3 -32 15 -22 23 -30 25 -47 16 -12 -6 -23 -8 -27 -5 -20 21 124 71 198 68
204 -6 302 -4 312 6 8 8 -14 11 -86 10 -53 -1 -99 2 -103 5 -3 4 8 8 25 8 18
1 37 3 42 4 6 1 22 3 36 4 15 0 23 5 19 12 -4 6 -19 10 -33 9 -15 -1 -31 -1
-37 0 -5 1 -26 2 -45 1 l-35 0 30 10 c17 5 80 23 140 38 61 16 98 30 84 30
-39 1 -182 -27 -225 -45 -61 -26 -48 -10 30 35 90 51 130 64 314 96 159 28
251 57 344 108 35 19 66 35 71 36 4 0 -4 -21 -18 -48z m-2391 8 c61 -17 96
-58 96 -113 0 -63 -36 -102 -147 -155 -231 -113 -279 -139 -356 -197 -46 -35
-93 -80 -107 -103 -27 -44 -39 -51 -41 -23 -1 16 -2 16 -6 0 -5 -20 -43 -25
-43 -5 0 24 60 116 107 164 75 76 156 132 311 211 78 40 142 79 142 86 0 26
-25 36 -94 36 -259 -1 -548 -215 -607 -449 -16 -62 -18 -66 -48 -69 -29 -3
-31 -1 -31 28 0 90 72 245 157 339 125 138 280 223 463 254 52 9 166 6 204 -4z
m-2940 -11 c-3 -4 -9 -8 -15 -8 -5 0 -9 4 -9 8 0 5 7 9 15 9 8 0 12 -4 9 -9z
m1236 -5 c34 -23 40 -33 40 -70 0 -69 -85 -99 -135 -48 -33 33 -32 70 4 106
34 33 56 36 91 12z m3642 -15 c-7 -7 -12 -8 -12 -2 0 14 12 26 19 19 2 -3 -1
-11 -7 -17z m-6251 -173 c60 -64 147 -121 239 -158 99 -39 530 -144 729 -177
175 -29 273 -55 341 -90 41 -21 137 -116 127 -126 -4 -4 -13 -1 -21 5 -10 8
-16 9 -21 1 -3 -6 -10 -8 -15 -5 -5 3 -19 1 -30 -5 -24 -13 -52 2 -44 23 2 7
-8 18 -23 25 -38 17 -54 15 -18 -3 21 -11 30 -22 30 -40 0 -23 -1 -24 -13 -8
-9 13 -15 14 -24 5 -9 -9 -9 -12 1 -12 7 0 9 -5 5 -11 -9 -16 -145 -2 -218 23
-75 25 -166 70 -237 118 -86 58 -156 91 -210 97 -63 7 -63 -7 1 -32 28 -11 50
-25 50 -31 0 -7 6 -14 13 -17 9 -4 9 -7 -1 -18 -8 -9 -15 -10 -20 -4 -9 13
-39 18 -46 7 -3 -5 11 -14 31 -21 29 -11 37 -11 44 0 13 21 22 3 10 -20 -7
-13 -18 -18 -29 -15 -13 5 -14 4 -3 -4 7 -5 11 -14 7 -20 -7 -12 45 -52 68
-52 25 0 66 -22 66 -36 0 -11 -17 -13 -78 -9 -113 7 -223 38 -337 94 -162 80
-273 196 -360 376 -39 80 -80 195 -70 195 2 0 27 -25 56 -55z m6919 -32 c-51
-160 -162 -324 -285 -419 -76 -59 -197 -117 -299 -144 -98 -25 -141 -26 -132
-5 3 8 0 15 -7 15 -7 1 -3 8 8 18 12 10 19 26 17 37 -4 20 -4 20 11 1 14 -19
15 -19 26 1 6 12 8 30 4 40 -6 16 -5 16 11 4 16 -13 17 -12 10 14 -5 21 -4 26
7 23 8 -3 13 -12 11 -22 -2 -9 4 -16 13 -16 20 0 19 10 -5 38 -11 13 -24 21
-30 17 -5 -3 -10 0 -10 7 0 8 30 33 66 57 36 24 63 45 61 47 -12 12 -146 -43
-212 -87 l-75 -51 -58 53 c-31 29 -57 57 -57 63 0 6 43 20 95 32 52 11 145 35
205 52 61 17 164 45 230 62 162 42 270 96 348 175 34 34 64 60 66 59 2 -2 -7
-33 -19 -71z m-1626 30 c10 -62 7 -451 -5 -569 -28 -288 -123 -647 -229 -868
-30 -64 -83 -126 -106 -126 -20 0 -18 14 10 68 86 172 189 527 204 701 l4 54
-31 -22 c-62 -44 -343 -157 -362 -145 -5 3 -9 13 -9 22 0 14 37 29 165 70 90
29 185 62 210 73 44 20 45 21 45 67 0 26 3 77 7 115 4 48 3 67 -6 67 -6 0 -46
-20 -89 -45 -42 -24 -106 -56 -142 -71 -36 -14 -73 -33 -82 -41 -16 -15 -20
-14 -38 2 -19 17 -20 17 -35 -19 -17 -41 -21 -43 -48 -19 -18 17 -20 17 -38
-6 -10 -13 -19 -30 -19 -38 0 -8 -3 -13 -7 -11 -5 2 -21 10 -37 18 -28 14 -30
13 -55 -20 -14 -19 -56 -66 -92 -104 l-66 -69 -39 31 c-113 91 -280 113 -447
58 -98 -32 -163 -81 -214 -161 -15 -25 -31 -45 -35 -45 -4 0 -63 56 -132 124
-123 122 -125 123 -143 104 -27 -31 -254 -230 -257 -226 -1 1 -13 20 -25 40
-69 116 -228 190 -411 192 -102 1 -185 -26 -251 -82 l-42 -36 -16 24 c-9 13
-33 40 -54 59 -22 20 -45 48 -53 63 -18 34 -42 58 -59 58 -25 0 -65 -46 -65
-74 0 -34 -14 -34 -121 3 -186 63 -369 153 -369 181 0 14 -4 15 115 -35 133
-55 353 -128 365 -120 15 10 12 31 -9 56 -17 21 -22 22 -40 12 -27 -17 -41
-16 -41 1 0 8 -7 22 -15 30 -13 13 -20 13 -36 3 -14 -9 -22 -9 -27 -1 -4 6
-47 28 -97 49 -98 42 -189 89 -219 114 -18 16 -19 13 -12 -94 3 -60 13 -146
21 -190 8 -44 18 -93 21 -110 32 -179 108 -423 184 -592 40 -87 39 -99 -4 -71
-44 29 -90 111 -154 273 -82 210 -136 421 -164 645 -14 114 -19 643 -5 656 4
4 15 -3 24 -17 61 -88 179 -182 308 -247 82 -40 305 -117 445 -152 622 -157
1464 -161 2081 -12 315 77 546 166 668 257 54 42 151 154 151 176 0 5 4 9 9 9
4 0 11 -17 15 -37z m-1790 -71 c-38 -78 -150 -188 -235 -230 -59 -30 -192 -71
-228 -72 -8 0 24 23 71 51 111 66 232 158 333 252 44 41 82 70 83 65 2 -5 -9
-35 -24 -66z m1456 59 c0 -6 -4 -13 -10 -16 -5 -3 -10 1 -10 9 0 9 5 16 10 16
6 0 10 -4 10 -9z m650 -21 c0 -5 -4 -10 -10 -10 -5 0 -10 5 -10 10 0 6 5 10
10 10 6 0 10 -4 10 -10z m50 0 c0 -5 -7 -10 -16 -10 -8 0 -12 5 -9 10 3 6 10
10 16 10 5 0 9 -4 9 -10z m-3680 -20 c0 -5 -9 -14 -20 -20 -22 -12 -27 -1 -8
18 14 14 28 16 28 2z m2990 3 c-1 -11 -26 -43 -34 -43 -4 0 -4 10 0 22 6 20 5
21 -9 9 -9 -7 -14 -17 -11 -22 3 -5 -7 -14 -21 -19 -39 -15 -39 -13 -3 25 29
31 79 48 78 28z m-4000 -13 c0 -5 -4 -10 -10 -10 -5 0 -10 5 -10 10 0 6 5 10
10 10 6 0 10 -4 10 -10z m4580 0 c0 -5 -4 -10 -10 -10 -5 0 -10 5 -10 10 0 6
5 10 10 10 6 0 10 -4 10 -10z m40 6 c0 -3 -4 -8 -10 -11 -5 -3 -10 -1 -10 4 0
6 5 11 10 11 6 0 10 -2 10 -4z m340 -6 c0 -5 -5 -10 -11 -10 -5 0 -7 5 -4 10
3 6 8 10 11 10 2 0 4 -4 4 -10z m-3936 -15 c-5 -12 -2 -14 12 -8 17 6 18 5 4
-11 -8 -11 -16 -14 -18 -7 -2 6 -11 11 -19 11 -13 0 -13 3 -3 15 16 19 31 19
24 0z m-598 -22 c-10 -10 -19 5 -10 18 6 11 8 11 12 0 2 -7 1 -15 -2 -18z
m651 -30 c-3 -2 -14 0 -24 7 -16 10 -16 11 0 6 9 -3 17 0 18 7 0 8 2 8 6 -1 3
-7 3 -16 0 -19z m33 -13 c0 -5 -2 -10 -4 -10 -3 0 -8 5 -11 10 -3 6 -1 10 4
10 6 0 11 -4 11 -10z m-890 -57 c0 -14 -19 -38 -25 -32 -8 8 5 39 16 39 5 0 9
-3 9 -7z m80 -3 c0 -5 -4 -10 -10 -10 -5 0 -10 5 -10 10 0 6 5 10 10 10 6 0
10 -4 10 -10z m4378 -29 c-6 -2 -14 3 -19 10 -5 8 -9 10 -9 6 0 -5 -5 -5 -10
-2 -6 4 -8 11 -5 16 4 5 17 1 30 -8 13 -10 19 -20 13 -22z m42 29 c0 -5 -7
-10 -15 -10 -8 0 -15 5 -15 10 0 6 7 10 15 10 8 0 15 -4 15 -10z m-4540 -4 c0
-3 -4 -8 -10 -11 -5 -3 -10 -1 -10 4 0 6 5 11 10 11 6 0 10 -2 10 -4z m95 -15
c3 -5 -6 -8 -20 -7 -35 4 -44 16 -12 16 14 0 28 -4 32 -9z m50 -1 c3 -5 1 -10
-4 -10 -6 0 -11 5 -11 10 0 6 2 10 4 10 3 0 8 -4 11 -10z m4301 -17 c-7 -7
-26 7 -26 19 0 6 6 6 15 -2 9 -7 13 -15 11 -17z m124 7 c0 -5 -2 -10 -4 -10
-3 0 -8 5 -11 10 -3 6 -1 10 4 10 6 0 11 -4 11 -10z m-160 -4 c0 -3 -4 -8 -10
-11 -5 -3 -10 -1 -10 4 0 6 5 11 10 11 6 0 10 -2 10 -4z m295 -6 c-3 -5 -10
-10 -16 -10 -5 0 -9 5 -9 10 0 6 7 10 16 10 8 0 12 -4 9 -10z m-12 -138 c81
-37 187 -138 229 -218 106 -198 65 -465 -97 -628 -166 -168 -442 -216 -643
-112 -66 35 -115 83 -109 110 6 32 41 160 44 165 1 2 21 -13 45 -33 24 -21 72
-52 108 -69 58 -29 74 -32 155 -32 78 0 98 4 152 29 76 35 144 104 181 184 53
116 26 268 -64 357 -45 43 -120 82 -180 91 -61 9 -159 -19 -226 -66 l-58 -39
0 120 0 120 35 15 c84 35 140 44 250 41 98 -3 117 -7 178 -35z m-5129 -97 c-4
-9 0 -15 10 -15 9 0 16 -4 16 -10 0 -14 -13 -13 -28 2 -9 9 -12 8 -12 -5 0 -9
7 -17 15 -17 17 0 20 -16 5 -25 -5 -3 -10 -1 -10 4 0 6 -9 11 -21 11 -17 0
-19 4 -13 22 4 13 14 28 23 35 21 16 21 16 15 -2z m5541 -24 c3 -5 1 -12 -5
-16 -5 -3 -10 1 -10 9 0 18 6 21 15 7z m-5481 -33 c-8 -28 -12 -33 -20 -25 -9
8 6 47 17 47 6 0 7 -10 3 -22z m5436 -8 c0 -5 -4 -10 -10 -10 -5 0 -10 5 -10
10 0 6 5 10 10 10 6 0 10 -4 10 -10z m-5410 -20 c0 -5 -4 -10 -10 -10 -5 0
-10 5 -10 10 0 6 5 10 10 10 6 0 10 -4 10 -10z m620 -12 c0 -4 -4 -8 -9 -8 -6
0 -12 4 -15 8 -3 5 1 9 9 9 8 0 15 -4 15 -9z m35 -8 c3 -5 1 -10 -4 -10 -6 0
-11 5 -11 10 0 6 2 10 4 10 3 0 8 -4 11 -10z m3704 -36 c-49 -54 -422 -207
-464 -190 -20 7 -16 48 5 51 35 5 340 108 400 134 82 37 89 37 59 5z m1325
-55 c-54 -57 -225 -172 -237 -159 -3 3 -8 35 -12 72 -7 65 -7 67 16 72 13 2
67 12 119 21 52 9 104 21 115 25 31 12 31 2 -1 -31z m-5959 16 c106 -26 238
-29 400 -10 177 21 363 17 437 -10 58 -21 71 -37 26 -31 -42 6 -60 -4 -48 -24
8 -12 10 -12 10 4 0 16 2 17 16 5 14 -12 14 -14 -3 -20 -10 -3 -22 -3 -28 0
-9 7 -24 7 -92 3 -28 -2 -31 -22 -4 -22 12 0 20 -9 24 -29 5 -24 10 -28 34
-24 37 5 -47 -35 -142 -68 -59 -20 -88 -24 -180 -23 -190 2 -343 65 -479 195
-78 75 -76 79 29 54z m5203 -16 c45 -15 102 -114 102 -177 0 -14 -29 -10 -98
15 -59 21 -48 25 18 8 30 -8 56 -12 58 -10 5 5 -43 25 -59 25 -5 0 -9 4 -9 10
0 5 -7 7 -15 4 -8 -4 -15 -1 -15 6 0 6 5 8 11 4 8 -4 9 1 4 16 -6 20 -5 22 11
16 12 -5 15 -4 9 2 -5 5 -25 14 -44 20 -27 10 -32 9 -28 -2 6 -14 -21 -32 -31
-21 -3 3 0 5 6 5 7 0 12 5 12 11 0 5 -4 8 -9 4 -5 -3 -12 3 -14 12 -4 15 -5
14 -6 -3 0 -11 -8 -21 -16 -21 -9 0 -13 7 -10 16 2 9 0 23 -6 31 -8 12 -9 11
-4 -6 4 -15 0 -24 -10 -28 -9 -3 -13 -2 -10 4 3 6 1 10 -4 10 -6 0 -11 -4 -11
-8 0 -5 -6 -9 -13 -9 -30 0 -11 27 37 51 55 27 96 32 144 15z m-4268 -59 c0
-5 -9 -10 -20 -10 -11 0 -20 -5 -20 -12 0 -6 -2 -9 -5 -6 -3 3 -3 13 1 22 7
17 44 23 44 6z m505 -85 c77 -26 143 -51 147 -54 4 -3 3 -13 -2 -20 -17 -28
-214 45 -342 125 -54 34 -47 49 10 21 26 -13 110 -45 187 -72z m3736 38 c-9
-16 -10 -14 -11 12 0 21 3 26 11 18 8 -8 8 -16 0 -30z m-4411 17 c0 -5 -4 -10
-10 -10 -5 0 -10 5 -10 10 0 6 5 10 10 10 6 0 10 -4 10 -10z m35 0 c3 -5 1
-10 -4 -10 -6 0 -11 5 -11 10 0 6 2 10 4 10 3 0 8 -4 11 -10z m-1115 -106 c0
-8 -13 -29 -29 -45 -23 -22 -39 -29 -70 -29 -47 0 -58 12 -37 42 22 31 55 47
99 48 27 0 37 -4 37 -16z m5470 -30 c132 -43 135 -45 121 -73 -15 -27 -49 -27
-137 0 -84 26 -90 29 -73 41 10 6 7 7 -8 3 -14 -4 -23 -2 -23 4 0 6 -6 11 -13
11 -14 0 -47 35 -47 51 0 15 59 3 180 -37z m1095 32 c39 -17 63 -52 46 -69 -6
-6 -28 -10 -48 -10 -41 1 -83 38 -83 74 0 23 35 26 85 5z m-5295 -7 c0 -5 -4
-7 -10 -4 -5 3 -10 -1 -10 -10 0 -9 -4 -13 -10 -10 -5 3 -10 1 -10 -6 0 -7 -3
-9 -6 -6 -4 4 -15 -2 -24 -13 -41 -48 -174 -81 -257 -65 l-38 8 55 25 c169 77
310 114 310 81z m456 -46 c134 -47 140 -50 132 -72 -10 -27 -13 -26 -152 39
-120 56 -185 95 -146 87 14 -3 88 -28 166 -54z m387 -5 c61 -87 82 -130 112
-239 15 -52 36 -116 48 -144 20 -48 100 -188 153 -267 34 -52 16 -47 -51 14
-80 73 -136 156 -215 320 -38 79 -69 136 -70 128 0 -31 46 -159 91 -248 25
-50 40 -87 33 -81 -27 22 -105 149 -144 233 -22 47 -42 86 -44 86 -2 0 0 -19
6 -42 12 -55 48 -134 88 -195 28 -42 22 -38 -52 37 -46 47 -92 103 -103 125
-27 56 -32 155 -11 210 16 40 88 125 106 125 5 0 28 -28 53 -62z m598 16 c141
-63 192 -190 128 -316 -55 -107 -229 -81 -229 35 0 46 22 61 79 54 l51 -6 0
33 c0 46 -32 82 -90 101 -86 28 -171 -1 -213 -73 -42 -71 -31 -212 23 -325 18
-36 18 -67 0 -67 -15 0 -69 73 -100 135 -79 159 -81 314 -7 393 70 75 234 92
358 36z m1286 23 c158 -41 213 -180 147 -375 -27 -81 -49 -123 -97 -184 -51
-67 -68 -39 -32 51 56 137 56 262 0 336 -29 37 -88 65 -137 65 -72 0 -148 -61
-148 -120 0 -24 26 -38 43 -21 16 16 53 14 71 -5 19 -18 21 -92 3 -115 -34
-44 -114 -52 -168 -16 -52 34 -81 99 -76 168 10 115 91 189 237 218 66 13 100
13 157 -2z m463 -34 c24 -27 49 -62 56 -80 17 -39 18 -128 2 -174 -12 -38 -55
-103 -87 -134 -97 -94 -104 -100 -88 -73 54 88 85 159 91 203 l6 50 -24 -56
c-43 -107 -146 -267 -170 -269 -5 0 -2 8 6 18 42 46 122 244 116 286 -2 14
-17 -12 -43 -74 -54 -128 -119 -224 -212 -314 -42 -42 -79 -73 -81 -71 -2 2
13 31 34 65 125 198 133 215 184 393 16 60 40 127 51 150 28 55 87 127 104
127 7 0 32 -21 55 -47z m450 42 c0 -9 -263 -135 -281 -135 -9 0 -19 9 -22 20
-4 16 4 22 42 35 25 8 89 31 141 49 96 34 120 41 120 31z m-1554 -177 c163
-168 202 -263 192 -471 -6 -110 -24 -177 -83 -301 -35 -73 -150 -259 -163
-264 -4 -1 -7 10 -6 25 2 43 4 49 13 35 5 -9 17 5 39 46 18 33 32 66 32 73 -1
8 -15 -12 -31 -45 -17 -32 -32 -56 -35 -53 -5 4 59 179 77 210 6 11 8 21 5 24
-3 4 -20 -24 -37 -61 -17 -36 -40 -71 -50 -77 -10 -5 -18 -13 -17 -17 5 -17
-12 -72 -22 -72 -6 0 -9 8 -6 18 3 9 15 69 26 132 11 63 27 147 35 185 41 182
28 334 -38 459 -48 89 -61 86 -117 -27 -58 -118 -63 -269 -14 -430 27 -92 58
-236 51 -243 -2 -3 -10 17 -17 43 -6 26 -16 60 -22 75 -5 15 -7 32 -3 37 3 6
2 11 -3 11 -6 0 -15 14 -21 32 -6 17 -14 29 -17 26 -7 -7 6 -58 15 -58 4 0 7
-8 8 -17 2 -43 14 -104 32 -163 36 -114 9 -76 -38 53 -11 31 -18 57 -16 57 3
0 -6 18 -20 40 -14 22 -25 45 -26 52 0 8 -2 9 -5 2 -5 -12 75 -240 107 -308
10 -22 17 -41 15 -43 -5 -5 -86 125 -90 145 -9 40 -19 62 -28 62 -13 0 -2 -34
43 -122 82 -164 -4 -48 -99 132 -66 125 -92 212 -99 335 -11 192 38 307 197
468 59 59 111 107 117 107 5 0 59 -51 119 -112z m-1715 17 c16 -9 27 -20 24
-25 -7 -12 -65 16 -65 30 0 13 6 13 41 -5z m3249 6 c0 -5 -20 -16 -45 -24 -54
-19 -60 -5 -7 16 44 19 52 20 52 8z m-2340 -55 c0 -2 -7 -21 -16 -42 -19 -46
-14 -129 12 -193 16 -40 16 -41 -7 -60 l-24 -19 -22 46 c-25 52 -32 166 -12
205 20 39 69 84 69 63z m1428 -43 c25 -39 24 -173 -2 -231 -22 -48 -26 -50
-50 -23 -17 18 -17 21 0 53 25 48 30 154 10 202 -9 21 -16 40 -16 43 0 11 42
-21 58 -44z m727 -62 c-35 -107 -90 -164 -235 -246 -126 -71 -256 -153 -331
-207 -37 -26 -71 -48 -75 -48 -13 0 104 116 171 170 33 26 96 71 140 100 50
33 128 102 210 185 138 140 154 146 120 46z m-2835 -27 c58 -58 146 -135 195
-172 115 -85 300 -239 345 -288 40 -43 33 -39 -70 31 -41 29 -120 78 -175 110
-243 142 -333 211 -383 296 -23 38 -41 129 -26 129 5 0 57 -48 114 -106z
m-1565 18 c101 -48 164 -140 165 -239 0 -60 -13 -99 -42 -130 -37 -40 -48 -30
-48 41 0 76 -11 110 -48 149 -39 41 -73 56 -142 64 -64 6 -90 26 -90 68 1 73
100 96 205 47z m6052 -7 c18 -21 23 -35 18 -54 -9 -38 -16 -42 -101 -57 -64
-11 -84 -19 -112 -46 -46 -44 -64 -89 -62 -157 2 -78 2 -81 -13 -81 -34 0 -87
97 -87 159 0 65 31 133 84 186 62 62 119 86 195 81 45 -2 59 -8 78 -31z
m-5415 -56 c54 -7 139 -9 203 -5 173 10 315 9 330 -4 13 -11 25 -76 17 -97 -2
-7 -9 -10 -16 -7 -6 4 4 -8 22 -26 18 -18 30 -35 26 -39 -4 -3 -9 0 -11 7 -4
10 -8 10 -19 1 -14 -11 -16 -9 -18 21 -1 8 -11 16 -23 16 -12 1 -20 -3 -17 -8
3 -4 11 -5 17 -2 9 5 9 3 0 -6 -10 -11 -15 -11 -28 0 -8 7 -15 9 -15 4 0 -5
-4 -4 -8 2 -4 8 -21 9 -47 5 l-40 -7 47 -8 c26 -4 50 -12 54 -17 4 -7 -66 -9
-217 -7 -217 4 -226 5 -296 32 -82 32 -154 90 -183 147 -11 21 -20 42 -20 48
0 5 34 -2 75 -15 41 -13 116 -29 167 -35z m2328 -176 c14 -65 10 -303 -5 -303
-5 0 -3 -5 5 -10 13 -9 13 -12 -2 -21 -10 -5 -18 -15 -18 -22 0 -7 4 -6 10 3
15 24 19 7 9 -40 -16 -74 -20 -78 -34 -35 -46 146 -58 413 -21 484 17 32 19
34 32 17 7 -10 18 -43 24 -73z m-1387 9 c23 -16 85 -52 137 -82 168 -93 213
-122 320 -199 102 -73 329 -286 317 -297 -3 -3 -12 -1 -19 6 -29 25 -241 161
-245 156 -5 -5 -199 79 -222 97 -14 11 -15 10 -1 -6 7 -11 64 -44 125 -74 131
-65 287 -154 281 -160 -6 -7 -177 65 -293 123 -103 52 -136 58 -65 12 50 -32
261 -134 362 -175 l35 -14 -48 6 c-65 8 -134 33 -247 89 -88 43 -93 44 -60 16
76 -66 236 -127 498 -187 12 -3 22 -9 22 -13 0 -5 10 -6 23 -3 17 4 19 2 7 -6
-18 -12 -59 -7 -230 30 -243 52 -389 144 -545 344 -74 95 -148 216 -182 297
-33 82 -32 82 30 40z m865 14 c57 -29 73 -60 108 -198 33 -131 91 -270 151
-361 33 -50 42 -65 83 -134 16 -29 35 -53 40 -53 6 0 10 -6 10 -14 0 -7 7 -19
15 -26 8 -7 15 -18 14 -24 0 -7 -2 -6 -6 2 -2 6 -11 12 -19 12 -8 0 -14 3 -14
8 0 12 -108 127 -114 121 -4 -3 5 -18 19 -33 14 -15 25 -31 25 -36 0 -5 10
-16 22 -24 12 -9 19 -18 16 -21 -3 -4 -18 6 -32 20 -14 14 -31 23 -37 19 -13
-8 -70 46 -108 101 -16 22 -43 78 -61 125 -19 47 -52 110 -75 140 -23 30 -47
65 -54 78 -8 14 -18 21 -27 18 -9 -4 -19 6 -28 27 l-14 32 -1 -39 c-1 -26 9
-57 29 -93 17 -29 30 -60 30 -68 0 -8 4 -15 8 -15 4 0 13 -15 20 -32 10 -28 9
-30 -2 -15 -21 27 -32 20 -29 -20 2 -21 0 -32 -3 -25 -3 6 -12 12 -21 12 -10
0 -13 6 -8 23 5 17 4 19 -4 7 -7 -10 -14 -11 -18 -5 -5 6 -27 36 -51 67 -50
66 -92 173 -91 238 0 133 128 238 227 186z m1844 -120 c-28 -56 -74 -137 -102
-181 -63 -97 -225 -259 -298 -298 -78 -42 -205 -82 -338 -107 -66 -11 -133
-25 -150 -31 -39 -12 -81 -12 -69 0 12 11 141 49 286 84 121 29 236 78 305
131 52 40 49 48 -6 14 -69 -42 -313 -128 -362 -128 -16 0 74 42 127 60 78 25
240 108 265 136 l25 28 -32 -22 c-17 -12 -37 -22 -45 -22 -7 0 -32 -11 -55
-24 -50 -29 -212 -90 -219 -83 -5 5 219 124 264 140 20 8 31 27 15 27 -3 0
-44 -21 -91 -46 -46 -25 -86 -43 -89 -41 -4 4 116 95 163 123 11 7 16 14 13
18 -3 3 -63 -36 -134 -86 -70 -51 -137 -100 -149 -108 -11 -8 -37 -27 -57 -42
-74 -56 -56 -25 49 83 148 155 244 226 510 378 79 45 160 92 180 105 55 35 53
11 -6 -108z m-746 105 c97 -59 129 -195 76 -314 -35 -78 -153 -217 -128 -150
6 15 5 15 -13 -1 -11 -10 -18 -23 -14 -28 5 -10 -13 -28 -29 -28 -7 0 67 148
83 165 12 13 11 48 -1 40 -5 -3 -10 -15 -10 -26 0 -10 -5 -19 -11 -19 -5 0 -8
-4 -4 -9 3 -5 1 -12 -5 -16 -20 -12 -21 24 -2 67 11 23 23 61 27 83 l6 40 -22
-39 c-12 -22 -54 -71 -93 -110 -61 -60 -75 -80 -90 -131 -27 -88 -52 -133
-113 -202 -49 -57 -56 -61 -70 -47 -8 8 -12 18 -9 22 4 3 11 0 15 -7 6 -9 11
-10 15 -2 7 11 -10 51 -22 51 -4 0 -25 -21 -47 -46 -61 -69 -66 -74 -74 -74
-4 0 38 69 94 154 144 218 191 319 225 491 7 33 19 73 27 88 32 62 127 86 189
48z m-2504 -126 c178 -31 340 -104 495 -224 127 -98 300 -288 280 -307 -3 -4
-22 6 -41 22 -281 235 -366 295 -492 348 -86 36 -240 74 -252 61 -9 -9 16 -22
57 -29 49 -8 185 -62 189 -75 5 -15 -2 -14 -86 9 -77 21 -232 39 -219 25 4 -5
58 -19 120 -32 61 -12 130 -29 152 -37 22 -9 53 -20 69 -26 51 -19 16 -31 -39
-14 -47 14 -236 44 -280 44 -36 -1 6 -17 60 -24 95 -12 335 -79 335 -94 0 -8
-7 -11 -17 -8 -10 3 -38 8 -63 11 -25 3 -52 8 -60 10 -8 3 -32 7 -53 9 -34 5
-37 3 -26 -10 6 -8 17 -13 23 -11 6 3 19 0 29 -5 10 -5 40 -12 65 -15 26 -3
54 -9 64 -14 9 -5 26 -9 37 -9 12 0 21 -5 21 -11 0 -7 -23 -9 -70 -5 -38 3
-70 2 -70 -2 0 -4 37 -16 83 -26 45 -10 101 -22 123 -28 23 -5 58 -10 78 -11
21 -1 36 -6 36 -13 0 -29 -294 -25 -420 6 -214 53 -417 198 -567 408 -25 35
-43 65 -41 67 5 5 231 21 329 24 37 0 105 -6 151 -14z m4257 -9 c7 -5 1 -23
-21 -54 -130 -191 -365 -365 -563 -417 -33 -8 -98 -20 -145 -25 -99 -12 -301
-9 -297 4 2 5 10 11 18 12 7 2 25 6 39 9 14 3 63 13 110 21 47 8 92 18 100 21
8 3 30 7 49 8 19 1 36 6 38 11 3 8 -112 9 -148 1 -7 -1 -13 3 -16 9 -5 15 110
45 185 48 12 1 22 7 22 14 0 9 -10 11 -32 8 -71 -11 -148 -15 -148 -6 0 10 8
13 134 45 54 14 127 27 164 30 37 3 71 11 77 17 12 12 -137 3 -195 -12 -19 -5
-53 -12 -75 -14 -22 -3 -55 -10 -72 -15 -18 -5 -33 -6 -33 -2 0 9 206 73 310
97 41 9 80 21 85 27 17 16 -104 -2 -221 -33 -60 -16 -110 -27 -112 -26 -7 8
129 69 213 96 75 24 84 29 54 29 -50 1 -198 -42 -287 -84 -102 -48 -229 -138
-355 -251 -59 -53 -111 -94 -114 -90 -9 9 51 91 131 180 144 161 333 272 571
337 62 17 97 19 296 16 125 -3 232 -7 238 -11z m-5539 -211 c189 -377 400
-675 665 -940 227 -228 366 -333 657 -501 280 -162 531 -264 899 -368 593
-167 1346 -163 1972 10 782 216 1415 658 1874 1309 129 182 282 455 353 629
l33 78 96 -4 c65 -3 107 -10 128 -21 51 -27 102 -76 126 -121 l22 -41 0 -1490
0 -1490 -27 -57 c-35 -76 -98 -142 -167 -175 l-56 -28 -3375 -3 c-3362 -2
-3375 -2 -3442 18 -130 39 -218 153 -239 307 -6 51 -9 557 -7 1478 l3 1400 22
55 c25 62 89 131 143 154 25 11 62 15 125 13 l90 -2 105 -210z m2664 23 c-3
-5 0 -8 5 -8 6 0 11 -4 11 -10 0 -22 -19 -8 -29 21 -15 42 -14 47 3 24 8 -11
12 -23 10 -27z m-1119 -18 c3 -5 1 -10 -4 -10 -6 0 -11 5 -11 10 0 6 2 10 4
10 3 0 8 -4 11 -10z m-450 -275 c128 -96 271 -168 545 -271 124 -48 281 -94
400 -119 181 -38 562 -96 716 -110 197 -18 640 -20 812 -5 657 59 1267 228
1602 444 77 50 236 181 297 245 50 52 54 39 13 -43 -86 -170 -229 -293 -498
-429 -73 -37 -124 -69 -128 -81 -16 -49 -346 -166 -649 -230 -417 -88 -655
-110 -1105 -103 -409 6 -624 32 -1035 123 -276 62 -529 158 -567 217 -10 14
-47 37 -92 55 -182 77 -376 218 -474 345 -39 49 -102 161 -102 180 0 5 44 -31
98 -79 53 -48 129 -110 167 -139z m515 199 c0 -8 -4 -12 -10 -9 -5 3 -10 10
-10 16 0 5 5 9 10 9 6 0 10 -7 10 -16z m2100 1 c0 -8 -4 -15 -10 -15 -5 0 -10
7 -10 15 0 8 5 15 10 15 6 0 10 -7 10 -15z m-20 -29 c0 -3 -4 -8 -10 -11 -5
-3 -10 -1 -10 4 0 6 5 11 10 11 6 0 10 -2 10 -4z m-2029 -39 c-1 -12 -15 -9
-19 4 -3 6 1 10 8 8 6 -3 11 -8 11 -12z m3039 3 c0 -5 -4 -10 -9 -10 -6 0 -13
5 -16 10 -3 6 1 10 9 10 9 0 16 -4 16 -10z m-40 -10 c0 -5 -4 -10 -10 -10 -5
0 -10 5 -10 10 0 6 5 10 10 10 6 0 10 -4 10 -10z m-2984 -57 c-10 -10 -19 5
-10 18 6 11 8 11 12 0 2 -7 1 -15 -2 -18z m1014 23 c0 -3 -4 -8 -10 -11 -5 -3
-10 -1 -10 4 0 6 5 11 10 11 6 0 10 -2 10 -4z m-980 -16 c0 -5 -2 -10 -4 -10
-3 0 -8 5 -11 10 -3 6 -1 10 4 10 6 0 11 -4 11 -10z m40 0 c0 -5 -4 -10 -10
-10 -5 0 -10 5 -10 10 0 6 5 10 10 10 6 0 10 -4 10 -10z m970 0 c0 -5 -5 -10
-11 -10 -5 0 -7 5 -4 10 3 6 8 10 11 10 2 0 4 -4 4 -10z m1970 0 c0 -5 -7 -10
-15 -10 -8 0 -15 5 -15 10 0 6 7 10 15 10 8 0 15 -4 15 -10z m-1488 -62 c-7
-7 -12 -8 -12 -2 0 14 12 26 19 19 2 -3 -1 -11 -7 -17z m814 -85 c-51 -27
-166 -62 -271 -83 -122 -23 -277 -36 -256 -22 15 10 78 24 317 66 77 14 158
32 180 40 52 19 66 19 30 -1z m-1564 -17 c56 -13 172 -36 256 -52 83 -15 152
-32 152 -36 0 -31 -370 37 -492 91 -58 26 -39 25 84 -3z m-292 -54 c35 -12 56
-25 58 -37 2 -9 0 -15 -5 -12 -19 12 -213 20 -213 10 0 -6 24 -13 53 -16 28
-3 84 -14 122 -25 l70 -20 -40 -11 c-64 -18 -222 -14 -306 8 -75 19 -233 81
-226 88 3 2 69 12 148 23 162 22 258 19 339 -8z m1190 12 c0 -8 -4 -12 -10 -9
-5 3 -10 10 -10 16 0 5 5 9 10 9 6 0 10 -7 10 -16z m1174 -4 c28 -5 78 -12
111 -15 57 -7 58 -8 35 -21 -14 -7 -74 -30 -135 -51 -105 -35 -116 -37 -247
-37 -94 -1 -141 3 -149 11 -9 9 -6 13 15 19 14 3 33 4 41 0 8 -3 15 -1 15 5 0
6 4 8 9 4 5 -3 12 -1 15 4 4 5 25 12 49 16 23 4 49 11 57 16 19 12 -92 9 -134
-2 -31 -9 -76 -2 -76 11 0 6 94 39 155 54 25 6 172 -2 239 -14z m-1934 -55
c58 -13 164 -31 235 -40 72 -9 153 -22 180 -29 l50 -14 -85 -1 c-104 -1 -247
20 -360 53 -82 24 -201 72 -150 61 14 -3 72 -16 130 -30z m1310 25 c-24 -15
-197 -67 -285 -85 -72 -15 -240 -34 -304 -35 -14 0 -21 4 -15 8 11 10 140 35
319 62 72 11 162 28 200 38 85 23 107 26 85 12z m-1655 -20 c3 -5 1 -10 -4
-10 -6 0 -11 5 -11 10 0 6 2 10 4 10 3 0 8 -4 11 -10z m1540 -69 c-16 -14
-202 -81 -274 -98 -79 -18 -355 -31 -496 -22 -119 8 -296 50 -380 90 -33 16
-49 27 -35 23 27 -6 230 -46 350 -69 97 -18 366 -14 511 9 84 13 206 41 329
75 2 0 0 -3 -5 -8z m-2517 -407 c4 -38 -18 -59 -52 -50 -30 7 -41 37 -26 66 9
16 19 20 43 18 28 -3 32 -7 35 -34z m3890 24 c19 -19 14 -56 -8 -68 -38 -21
-80 22 -60 61 12 21 50 25 68 7z m-578 -18 c0 -5 -2 -10 -4 -10 -3 0 -8 5 -11
10 -3 6 -1 10 4 10 6 0 11 -4 11 -10z m-100 -20 c0 -5 -2 -10 -4 -10 -3 0 -8
5 -11 10 -3 6 -1 10 4 10 6 0 11 -4 11 -10z m120 -20 c0 -5 -4 -10 -9 -10 -6
0 -13 5 -16 10 -3 6 1 10 9 10 9 0 16 -4 16 -10z m105 -10 c3 -11 11 -19 18
-17 6 1 11 -4 12 -11 0 -7 6 -17 14 -21 31 -20 -318 -170 -571 -246 -400 -121
-813 -166 -1233 -135 -341 26 -681 100 -985 217 -153 59 -360 157 -360 172 0
4 9 18 20 31 22 25 50 21 49 -7 0 -16 -1 -16 -8 2 -8 19 -8 19 -20 -3 -10 -18
-9 -22 3 -22 8 0 20 -8 25 -17 9 -16 12 -15 35 10 15 18 30 26 37 21 9 -5 10
-2 6 9 -7 18 8 33 18 17 3 -5 -1 -20 -10 -34 -11 -17 -13 -26 -5 -31 8 -5 8
-11 1 -19 -15 -17 -5 -24 24 -18 16 3 24 10 23 20 -2 9 7 18 21 22 21 5 22 7
7 19 -23 19 -10 32 20 19 21 -10 24 -17 19 -37 -12 -51 -10 -65 9 -69 14 -3
17 0 13 12 -5 11 -1 16 13 16 23 0 25 10 8 29 -11 11 -10 13 4 8 22 -8 33 10
18 28 -17 21 6 20 27 -1 12 -11 13 -18 4 -27 -16 -16 -14 -27 5 -20 12 4 14 0
8 -23 -4 -16 -11 -34 -16 -41 -11 -14 7 -27 29 -19 9 4 13 14 10 25 -3 12 1
22 9 25 8 3 14 12 14 20 0 15 42 66 53 66 7 0 1 -24 -16 -57 -6 -13 -7 -26 -3
-30 4 -4 9 3 13 15 5 22 14 27 26 15 4 -3 0 -15 -10 -25 -9 -10 -11 -18 -5
-18 6 0 17 -3 25 -6 10 -3 18 4 25 23 5 15 17 37 25 48 13 16 18 18 28 8 9 -9
9 -13 2 -13 -15 0 -10 -83 6 -88 6 -2 17 10 24 27 9 24 16 30 31 25 15 -5 18
-3 12 11 -9 24 3 38 20 24 8 -7 11 -15 6 -18 -6 -3 -7 -24 -3 -46 8 -48 34
-55 39 -12 3 23 8 28 23 24 20 -6 26 7 8 19 -8 4 -7 9 2 15 19 11 42 -10 29
-26 -8 -9 -6 -14 6 -19 9 -3 20 -4 24 -1 5 3 12 0 16 -6 5 -8 9 -8 14 1 5 8
13 9 21 4 8 -5 21 -9 29 -9 14 0 18 -21 9 -55 -2 -9 4 -16 18 -18 18 -3 21 1
20 30 -2 29 1 33 22 30 20 -2 22 0 11 13 -7 9 -9 19 -5 23 4 4 10 1 12 -6 3
-6 10 -9 16 -5 6 4 8 0 4 -10 -3 -10 -2 -17 2 -17 17 0 21 -32 6 -46 -21 -21
-19 -24 11 -24 19 0 25 4 21 15 -4 8 -2 17 3 20 5 3 7 12 3 21 -4 12 0 14 20
9 18 -5 28 -2 35 11 9 16 11 13 17 -18 4 -20 4 -45 1 -56 -8 -23 5 -35 26 -27
8 3 14 21 15 42 1 19 6 39 12 42 6 4 12 19 13 34 1 15 6 27 10 27 5 0 6 -13 3
-30 -6 -32 10 -43 18 -12 4 13 5 11 6 -5 0 -13 5 -23 10 -23 4 0 6 -11 4 -24
-4 -21 -2 -23 21 -19 20 4 25 10 21 23 -3 11 1 20 11 24 12 5 14 10 5 19 -8
10 -7 14 4 14 9 0 15 -10 15 -23 0 -17 4 -22 15 -18 11 5 14 0 13 -17 -2 -15
3 -24 15 -27 12 -2 17 3 17 17 0 20 4 22 38 25 7 1 17 8 22 16 8 12 10 12 11
-5 1 -11 1 -28 0 -37 -2 -12 5 -18 17 -18 20 0 30 15 39 60 5 30 16 42 13 15
-5 -42 1 -50 15 -25 11 19 14 21 15 8 0 -10 4 -18 8 -18 5 0 7 -20 6 -45 -3
-39 0 -45 17 -45 22 0 24 11 7 28 -9 9 -9 15 -3 20 12 8 45 58 45 67 0 4 -4 3
-10 0 -6 -3 -7 1 -4 9 10 26 20 18 22 -16 2 -18 7 -37 13 -43 7 -7 8 -4 4 8
-4 9 -3 17 3 17 6 0 14 -9 17 -21 8 -24 41 -21 37 4 -2 9 2 17 9 17 6 0 9 6 6
13 -2 6 -1 21 4 32 7 17 8 16 8 -8 1 -16 5 -26 11 -22 6 4 8 11 5 16 -4 5 -1
9 5 9 7 0 9 -8 5 -20 -5 -14 -2 -20 10 -20 9 0 14 -4 11 -8 -2 -4 -1 -14 4
-21 9 -16 30 -6 30 15 0 8 5 14 11 14 5 0 9 8 8 18 -3 31 1 43 11 37 6 -4 8
-15 5 -26 -5 -15 -1 -19 14 -19 14 0 21 -6 21 -20 0 -23 4 -24 30 -10 12 7 17
16 13 27 -5 13 -2 15 15 11 12 -4 22 -2 22 3 0 5 -7 9 -15 9 -8 0 -15 9 -15
20 0 18 1 18 24 -3 13 -12 26 -32 30 -44 4 -13 11 -23 14 -23 16 0 40 39 36
57 -3 11 3 23 16 31 11 7 20 8 20 3 0 -5 -5 -11 -11 -13 -5 -2 -1 -12 11 -23
11 -11 29 -28 39 -38 22 -21 31 -12 27 26 -2 15 1 27 6 27 5 0 8 10 6 21 -2
15 3 23 15 25 21 3 21 -5 2 -30 -19 -25 -19 -36 0 -36 9 0 12 6 9 15 -4 8 -1
15 5 15 6 0 11 -7 11 -15 0 -8 7 -15 15 -15 8 0 15 -9 15 -20 0 -12 -7 -20
-16 -20 -9 0 -14 -6 -11 -12 2 -8 16 -12 33 -10 34 4 43 10 28 20 -5 4 -11 25
-12 47 -2 35 0 38 12 23 16 -22 27 -23 20 -3 -4 8 -2 15 3 15 13 0 41 -53 36
-67 -3 -8 5 -13 21 -13 14 0 26 5 26 10 0 6 -7 10 -15 10 -19 0 -19 14 -1 33
11 11 12 17 3 26 -6 6 -9 11 -6 12 58 9 65 6 60 -23 0 -5 6 -8 14 -8 8 0 15
-9 15 -20 0 -12 7 -20 16 -20 12 0 14 7 9 30 -4 19 -3 30 4 30 7 0 10 15 7 38
-2 20 -1 29 1 19 3 -12 10 -16 20 -13 11 4 13 2 10 -9 -4 -8 1 -19 10 -23 10
-6 14 -16 10 -26 -5 -13 0 -16 25 -16 27 0 29 2 17 16 -10 13 -10 17 2 25 10
7 11 11 2 17 -8 5 -9 13 -3 22 6 8 10 11 10 5 0 -5 4 -3 10 5 15 24 25 4 29
-57 1 -7 5 -13 11 -13 5 0 7 8 4 18 -5 15 -4 15 8 2 11 -13 22 -15 51 -11 4 0
3 10 -3 20 -8 16 -6 20 8 24 13 4 12 5 -4 6 -32 2 -40 31 -8 31 18 0 27 -8 35
-27 12 -33 25 -42 50 -36 15 4 18 12 14 39 -3 23 -1 32 7 28 5 -4 15 0 20 7 8
11 9 10 5 -3 -3 -9 1 -19 10 -22 9 -4 13 -13 9 -22 -5 -12 -1 -14 15 -9 18 6
19 5 8 -13 -10 -16 -10 -23 0 -36 8 -9 17 -16 21 -16 12 0 21 31 13 43 -14 21
-9 52 12 70 19 17 19 17 36 -24 17 -46 53 -69 63 -42 4 8 1 22 -6 31 -10 11
-10 16 -2 19 7 2 10 13 7 23 -4 14 0 20 12 20 11 0 15 -5 11 -15 -3 -8 -2 -14
2 -14 21 3 31 -3 26 -15 -7 -18 11 -29 36 -21 27 8 25 34 -2 44 -21 8 -21 8 3
15 14 4 19 9 12 13 -15 6 -17 23 -4 23 5 0 12 -9 16 -20z m-2840 -8 c-3 -3
-11 0 -18 7 -9 10 -8 11 6 5 10 -3 15 -9 12 -12z m2520 7 c11 -17 -1 -21 -15
-4 -8 9 -8 15 -2 15 6 0 14 -5 17 -11z m103 -18 c3 -8 -1 -12 -9 -9 -7 2 -15
10 -17 17 -3 8 1 12 9 9 7 -2 15 -10 17 -17z m82 -41 c0 -5 -4 -10 -10 -10 -5
0 -10 5 -10 10 0 6 5 10 10 10 6 0 10 -4 10 -10z m-600 -15 c11 -13 10 -14 -4
-9 -9 3 -16 10 -16 15 0 13 6 11 20 -6z m-100 -29 c-7 -7 -14 -6 -21 1 -9 9
-7 12 9 10 14 -1 18 -5 12 -11z m-1405 -6 c3 -5 2 -10 -4 -10 -5 0 -13 5 -16
10 -3 6 -2 10 4 10 5 0 13 -4 16 -10z m145 0 c0 -5 -4 -10 -10 -10 -5 0 -10 5
-10 10 0 6 5 10 10 10 6 0 10 -4 10 -10z m300 -10 c0 -5 -5 -10 -11 -10 -5 0
-7 5 -4 10 3 6 8 10 11 10 2 0 4 -4 4 -10z m-230 -20 c0 -11 -4 -20 -10 -20
-5 0 -10 9 -10 20 0 11 5 20 10 20 6 0 10 -9 10 -20z m330 -20 c0 -5 -4 -10
-10 -10 -5 0 -10 5 -10 10 0 6 5 10 10 10 6 0 10 -4 10 -10z"/>
<path d="M5138 8819 c-28 -16 -24 -75 7 -95 59 -38 129 42 77 89 -21 19 -58
22 -84 6z"/>
<path d="M4520 8745 c-26 -32 13 -81 48 -59 34 22 22 74 -18 74 -10 0 -23 -7
-30 -15z"/>
<path d="M5773 8754 c-7 -3 -13 -16 -13 -29 0 -44 50 -60 74 -22 20 32 -22 67
-61 51z"/>
<path d="M4120 8686 c-28 -35 11 -93 48 -70 35 22 22 84 -18 84 -10 0 -23 -7
-30 -14z"/>
<path d="M6166 8684 c-17 -43 11 -82 48 -68 22 8 31 51 16 69 -16 20 -56 19
-64 -1z"/>
<path d="M3820 8585 c-26 -32 13 -81 48 -59 34 22 22 74 -18 74 -10 0 -23 -7
-30 -15z"/>
<path d="M6469 8576 c-9 -20 -9 -29 1 -41 27 -33 75 -7 68 37 -5 35 -54 38
-69 4z"/>
<path d="M7044 8389 c-24 -27 -8 -54 32 -54 23 0 30 5 32 24 3 15 -3 30 -14
38 -24 17 -28 17 -50 -8z"/>
<path d="M3245 8389 c-4 -5 -4 -21 -1 -35 5 -20 12 -25 33 -22 34 4 51 31 34
52 -15 18 -56 21 -66 5z"/>
<path d="M2959 8152 c-63 -52 8 -155 80 -117 46 23 54 66 20 109 -25 31 -66
35 -100 8z"/>
<path d="M7317 8159 c-58 -34 -28 -138 41 -139 33 0 72 43 72 79 0 52 -66 87
-113 60z"/>
<path d="M2430 7050 c0 -5 5 -10 11 -10 5 0 7 5 4 10 -3 6 -8 10 -11 10 -2 0
-4 -4 -4 -10z"/>
<path d="M2470 7011 c0 -6 5 -13 10 -16 6 -3 10 1 10 9 0 9 -4 16 -10 16 -5 0
-10 -4 -10 -9z"/>
<path d="M2520 6965 c7 -9 15 -13 17 -11 7 7 -7 26 -19 26 -6 0 -6 -6 2 -15z"/>
<path d="M2470 6940 c0 -5 5 -10 11 -10 5 0 7 5 4 10 -3 6 -8 10 -11 10 -2 0
-4 -4 -4 -10z"/>
<path d="M2552 6939 c2 -7 10 -15 17 -17 8 -3 12 1 9 9 -2 7 -10 15 -17 17 -8
3 -12 -1 -9 -9z"/>
<path d="M2510 6900 c0 -5 5 -10 10 -10 6 0 10 5 10 10 0 6 -4 10 -10 10 -5 0
-10 -4 -10 -10z"/>
<path d="M2468 6873 c7 -3 16 -2 19 1 4 3 -2 6 -13 5 -11 0 -14 -3 -6 -6z"/>
<path d="M2540 6870 c0 -5 5 -10 10 -10 6 0 10 5 10 10 0 6 -4 10 -10 10 -5 0
-10 -4 -10 -10z"/>
<path d="M2580 6840 c0 -5 5 -10 11 -10 5 0 7 5 4 10 -3 6 -8 10 -11 10 -2 0
-4 -4 -4 -10z"/>
<path d="M2546 6805 c-3 -8 -1 -15 4 -15 6 0 10 7 10 15 0 8 -2 15 -4 15 -2 0
-6 -7 -10 -15z"/>
<path d="M2635 6760 c3 -5 8 -10 11 -10 2 0 4 5 4 10 0 6 -5 10 -11 10 -5 0
-7 -4 -4 -10z"/>
<path d="M2610 6729 c0 -5 5 -7 10 -4 6 3 10 8 10 11 0 2 -4 4 -10 4 -5 0 -10
-5 -10 -11z"/>
<path d="M2641 6704 c0 -11 3 -14 6 -6 3 7 2 16 -1 19 -3 4 -6 -2 -5 -13z"/>
<path d="M2746 6615 c4 -8 8 -15 10 -15 2 0 4 7 4 15 0 8 -4 15 -10 15 -5 0
-7 -7 -4 -15z"/>
<path d="M2785 6590 c3 -5 8 -10 11 -10 2 0 4 5 4 10 0 6 -5 10 -11 10 -5 0
-7 -4 -4 -10z"/>
<path d="M7890 7020 c0 -5 5 -10 11 -10 5 0 7 5 4 10 -3 6 -8 10 -11 10 -2 0
-4 -4 -4 -10z"/>
<path d="M7780 6950 c-13 -9 -13 -10 0 -9 8 0 24 4 35 9 l20 9 -20 0 c-11 0
-27 -4 -35 -9z"/>
<path d="M7890 6899 c0 -5 5 -7 10 -4 6 3 10 8 10 11 0 2 -4 4 -10 4 -5 0 -10
-5 -10 -11z"/>
<path d="M7770 6869 c0 -5 5 -7 10 -4 6 3 10 8 10 11 0 2 -4 4 -10 4 -5 0 -10
-5 -10 -11z"/>
<path d="M7817 6853 c-4 -3 -7 -11 -7 -17 0 -6 5 -5 12 2 6 6 9 14 7 17 -3 3
-9 2 -12 -2z"/>
<path d="M7715 6790 c-3 -5 -1 -10 4 -10 6 0 11 5 11 10 0 6 -2 10 -4 10 -3 0
-8 -4 -11 -10z"/>
<path d="M7320 6740 c0 -5 5 -10 11 -10 5 0 7 5 4 10 -3 6 -8 10 -11 10 -2 0
-4 -4 -4 -10z"/>
<path d="M7715 6740 c-3 -5 -1 -10 4 -10 6 0 11 5 11 10 0 6 -2 10 -4 10 -3 0
-8 -4 -11 -10z"/>
<path d="M7304 6711 c3 -5 -1 -12 -10 -15 -13 -5 -14 -9 -4 -21 11 -14 14 -13
25 7 12 24 10 38 -6 38 -6 0 -8 -4 -5 -9z"/>
<path d="M7660 6709 c0 -5 5 -7 10 -4 6 3 10 8 10 11 0 2 -4 4 -10 4 -5 0 -10
-5 -10 -11z"/>
<path d="M7625 6690 c-3 -5 -2 -10 4 -10 5 0 13 5 16 10 3 6 2 10 -4 10 -5 0
-13 -4 -16 -10z"/>
<path d="M7590 6664 c0 -8 5 -12 10 -9 6 3 10 10 10 16 0 5 -4 9 -10 9 -5 0
-10 -7 -10 -16z"/>
<path d="M7277 6653 c-11 -10 -8 -43 4 -43 5 0 8 4 4 9 -3 5 2 11 11 13 15 3
15 4 2 15 -8 7 -18 10 -21 6z"/>
<path d="M7528 6593 c7 -3 16 -2 19 1 4 3 -2 6 -13 5 -11 0 -14 -3 -6 -6z"/>
<path d="M7740 7369 c0 -5 5 -7 10 -4 6 3 10 8 10 11 0 2 -4 4 -10 4 -5 0 -10
-5 -10 -11z"/>
<path d="M7695 7340 c-3 -5 -2 -10 4 -10 5 0 13 5 16 10 3 6 2 10 -4 10 -5 0
-13 -4 -16 -10z"/>
<path d="M7661 7303 c-5 -10 -13 -17 -18 -15 -4 1 -8 -2 -8 -8 0 -5 -4 -11
-10 -12 -22 -6 -58 -49 -49 -58 7 -7 28 8 62 44 29 30 52 57 52 60 0 13 -20 5
-29 -11z"/>
<path d="M7660 7246 c0 -8 7 -16 15 -20 17 -6 18 -4 9 18 -8 20 -24 21 -24 2z"/>
<path d="M7280 7150 c0 -5 5 -10 11 -10 5 0 7 5 4 10 -3 6 -8 10 -11 10 -2 0
-4 -4 -4 -10z"/>
<path d="M7255 7124 c9 -9 19 -13 23 -10 3 4 0 11 -8 16 -24 15 -33 11 -15 -6z"/>
<path d="M7220 7116 c0 -3 9 -10 20 -16 11 -6 20 -8 20 -6 0 3 -9 10 -20 16
-11 6 -20 8 -20 6z"/>
<path d="M7214 7075 c11 -8 22 -12 25 -9 6 6 -19 24 -34 24 -5 -1 -1 -7 9 -15z"/>
<path d="M2605 7370 c3 -5 8 -10 11 -10 2 0 4 5 4 10 0 6 -5 10 -11 10 -5 0
-7 -4 -4 -10z"/>
<path d="M2630 7340 c0 -5 7 -10 16 -10 8 0 12 5 9 10 -3 6 -10 10 -16 10 -5
0 -9 -4 -9 -10z"/>
<path d="M2640 7270 c0 -5 5 -10 10 -10 6 0 10 5 10 10 0 6 -4 10 -10 10 -5 0
-10 -4 -10 -10z"/>
<path d="M2440 6480 c0 -5 5 -10 11 -10 5 0 7 5 4 10 -3 6 -8 10 -11 10 -2 0
-4 -4 -4 -10z"/>
<path d="M2561 6464 c0 -11 3 -14 6 -6 3 7 2 16 -1 19 -3 4 -6 -2 -5 -13z"/>
<path d="M2510 6461 c0 -6 4 -12 8 -15 5 -3 9 1 9 9 0 8 -4 15 -9 15 -4 0 -8
-4 -8 -9z"/>
<path d="M2590 6440 c0 -5 5 -10 11 -10 5 0 7 5 4 10 -3 6 -8 10 -11 10 -2 0
-4 -4 -4 -10z"/>
<path d="M2480 6429 c0 -5 5 -7 10 -4 6 3 10 8 10 11 0 2 -4 4 -10 4 -5 0 -10
-5 -10 -11z"/>
<path d="M2550 6431 c0 -6 4 -13 10 -16 6 -3 7 1 4 9 -7 18 -14 21 -14 7z"/>
<path d="M2623 6418 c3 -9 1 -18 -5 -20 -6 -2 -9 -8 -7 -14 2 -5 12 -2 21 7
15 16 15 19 0 31 -13 11 -15 11 -9 -4z"/>
<path d="M2510 6400 c0 -5 7 -10 16 -10 8 0 12 5 9 10 -3 6 -10 10 -16 10 -5
0 -9 -4 -9 -10z"/>
<path d="M2580 6400 c0 -5 5 -10 10 -10 6 0 10 5 10 10 0 6 -4 10 -10 10 -5 0
-10 -4 -10 -10z"/>
<path d="M2550 6380 c0 -5 5 -10 11 -10 5 0 7 5 4 10 -3 6 -8 10 -11 10 -2 0
-4 -4 -4 -10z"/>
<path d="M2586 6351 c-4 -7 -5 -15 -2 -18 9 -9 19 4 14 18 -4 11 -6 11 -12 0z"/>
<path d="M2616 6331 c-4 -7 -5 -15 -2 -18 9 -9 19 4 14 18 -4 11 -6 11 -12 0z"/>
<path d="M8050 6700 c0 -5 5 -10 11 -10 5 0 7 5 4 10 -3 6 -8 10 -11 10 -2 0
-4 -4 -4 -10z"/>
<path d="M7898 6513 c7 -3 16 -2 19 1 4 3 -2 6 -13 5 -11 0 -14 -3 -6 -6z"/>
<path d="M7885 6450 c-3 -5 -2 -10 4 -10 5 0 13 5 16 10 3 6 2 10 -4 10 -5 0
-13 -4 -16 -10z"/>
<path d="M7855 6430 c-3 -5 -1 -10 4 -10 6 0 11 5 11 10 0 6 -2 10 -4 10 -3 0
-8 -4 -11 -10z"/>
<path d="M7820 6410 c0 -5 5 -10 10 -10 6 0 10 5 10 10 0 6 -4 10 -10 10 -5 0
-10 -4 -10 -10z"/>
<path d="M7780 6380 c0 -5 4 -10 9 -10 6 0 13 5 16 10 3 6 -1 10 -9 10 -9 0
-16 -4 -16 -10z"/>
<path d="M7750 6350 c0 -5 5 -10 10 -10 6 0 10 5 10 10 0 6 -4 10 -10 10 -5 0
-10 -4 -10 -10z"/>
<path d="M6501 6664 c0 -11 3 -14 6 -6 3 7 2 16 -1 19 -3 4 -6 -2 -5 -13z"/>
<path d="M3810 6700 c0 -5 5 -10 10 -10 6 0 10 5 10 10 0 6 -4 10 -10 10 -5 0
-10 -4 -10 -10z"/>
<path d="M3825 6670 c-3 -5 -1 -10 4 -10 6 0 11 5 11 10 0 6 -2 10 -4 10 -3 0
-8 -4 -11 -10z"/>
<path d="M2090 6241 c0 -9 30 -24 36 -18 2 1 -6 8 -16 15 -11 7 -20 8 -20 3z"/>
<path d="M2160 6230 c0 -5 5 -10 10 -10 6 0 10 5 10 10 0 6 -4 10 -10 10 -5 0
-10 -4 -10 -10z"/>
<path d="M2196 6211 c-4 -7 -5 -15 -2 -18 9 -9 19 4 14 18 -4 11 -6 11 -12 0z"/>
<path d="M2145 6190 c3 -5 8 -10 11 -10 2 0 4 5 4 10 0 6 -5 10 -11 10 -5 0
-7 -4 -4 -10z"/>
<path d="M2226 6191 c-4 -7 -5 -15 -2 -18 9 -9 19 4 14 18 -4 11 -6 11 -12 0z"/>
<path d="M2130 6160 c0 -5 5 -10 11 -10 5 0 7 5 4 10 -3 6 -8 10 -11 10 -2 0
-4 -4 -4 -10z"/>
<path d="M2250 6155 c0 -8 5 -15 10 -15 6 0 10 7 10 15 0 8 -4 15 -10 15 -5 0
-10 -7 -10 -15z"/>
<path d="M2230 6120 c0 -5 5 -10 10 -10 6 0 10 5 10 10 0 6 -4 10 -10 10 -5 0
-10 -4 -10 -10z"/>
<path d="M2265 6110 c3 -5 8 -10 11 -10 2 0 4 5 4 10 0 6 -5 10 -11 10 -5 0
-7 -4 -4 -10z"/>
<path d="M4345 6300 c-8 -13 4 -32 16 -25 12 8 12 35 0 35 -6 0 -13 -4 -16
-10z"/>
<path d="M4240 6279 c7 -11 14 -19 16 -16 7 7 -7 37 -17 37 -6 0 -5 -9 1 -21z"/>
<path d="M8185 6220 c-3 -5 -1 -10 4 -10 6 0 11 5 11 10 0 6 -2 10 -4 10 -3 0
-8 -4 -11 -10z"/>
<path d="M7483 5964 c-9 -19 -8 -24 3 -24 18 0 30 28 18 40 -5 5 -14 -1 -21
-16z"/>
<path d="M7525 5980 c-3 -5 -1 -10 4 -10 6 0 11 5 11 10 0 6 -2 10 -4 10 -3 0
-8 -4 -11 -10z"/>
<path d="M2860 5986 c14 -18 13 -19 -2 -13 -10 3 -18 2 -18 -2 0 -7 23 -21 35
-21 8 0 -3 32 -15 43 -11 9 -11 8 0 -7z"/>
<path d="M2820 5940 c0 -9 31 -30 44 -30 16 0 3 18 -19 28 -14 7 -25 8 -25 2z"/>
<path d="M2880 5900 c0 -5 5 -10 11 -10 5 0 7 5 4 10 -3 6 -8 10 -11 10 -2 0
-4 -4 -4 -10z"/>
<path d="M2920 5870 c0 -5 5 -10 10 -10 6 0 10 5 10 10 0 6 -4 10 -10 10 -5 0
-10 -4 -10 -10z"/>
<path d="M3090 5871 c0 -6 4 -13 10 -16 6 -3 7 1 4 9 -7 18 -14 21 -14 7z"/>
<path d="M2400 5860 c0 -5 5 -10 10 -10 6 0 10 5 10 10 0 6 -4 10 -10 10 -5 0
-10 -4 -10 -10z"/>
<path d="M2460 5850 c0 -6 7 -10 15 -10 8 0 15 2 15 4 0 2 -7 6 -15 10 -8 3
-15 1 -15 -4z"/>
<path d="M2348 5823 c7 -3 16 -2 19 1 4 3 -2 6 -13 5 -11 0 -14 -3 -6 -6z"/>
<path d="M2685 5720 c-3 -5 1 -10 10 -10 9 0 13 5 10 10 -3 6 -8 10 -10 10 -2
0 -7 -4 -10 -10z"/>
<path d="M2725 5720 c-3 -5 1 -10 10 -10 9 0 13 5 10 10 -3 6 -8 10 -10 10 -2
0 -7 -4 -10 -10z"/>
<path d="M2765 5721 c-6 -11 9 -23 19 -14 9 9 7 23 -3 23 -6 0 -12 -4 -16 -9z"/>
<path d="M2797 5716 c-8 -21 3 -27 19 -11 18 17 18 25 0 25 -8 0 -16 -6 -19
-14z"/>
<path d="M2710 5680 c0 -5 5 -10 11 -10 5 0 7 5 4 10 -3 6 -8 10 -11 10 -2 0
-4 -4 -4 -10z"/>
<path d="M7920 5850 c0 -5 4 -10 9 -10 6 0 13 5 16 10 3 6 -1 10 -9 10 -9 0
-16 -4 -16 -10z"/>
<path d="M7830 5840 c0 -5 7 -10 15 -10 8 0 15 5 15 10 0 6 -7 10 -15 10 -8 0
-15 -4 -15 -10z"/>
<path d="M7878 5843 c7 -3 16 -2 19 1 4 3 -2 6 -13 5 -11 0 -14 -3 -6 -6z"/>
<path d="M7905 5810 c-3 -5 1 -10 10 -10 9 0 13 5 10 10 -3 6 -8 10 -10 10 -2
0 -7 -4 -10 -10z"/>
<path d="M7756 5733 c-6 -14 -5 -15 5 -6 7 7 10 15 7 18 -3 3 -9 -2 -12 -12z"/>
<path d="M7460 5726 c0 -9 5 -16 10 -16 6 0 10 4 10 9 0 6 -4 13 -10 16 -5 3
-10 -1 -10 -9z"/>
<path d="M7680 5730 c0 -5 5 -10 11 -10 5 0 7 5 4 10 -3 6 -8 10 -11 10 -2 0
-4 -4 -4 -10z"/>
<path d="M7590 5720 c0 -5 5 -10 10 -10 6 0 10 5 10 10 0 6 -4 10 -10 10 -5 0
-10 -4 -10 -10z"/>
<path d="M7630 5691 c0 -17 18 -21 24 -6 3 9 0 15 -9 15 -8 0 -15 -4 -15 -9z"/>
<path d="M2260 5520 c0 -5 5 -10 10 -10 6 0 10 5 10 10 0 6 -4 10 -10 10 -5 0
-10 -4 -10 -10z"/>
<path d="M2300 5500 c0 -5 5 -10 10 -10 6 0 10 5 10 10 0 6 -4 10 -10 10 -5 0
-10 -4 -10 -10z"/>
<path d="M2250 5440 c0 -5 5 -10 10 -10 6 0 10 5 10 10 0 6 -4 10 -10 10 -5 0
-10 -4 -10 -10z"/>
<path d="M2875 5429 c-4 -6 -5 -12 -2 -15 2 -3 7 2 10 11 7 17 1 20 -8 4z"/>
<path d="M2945 5430 c-3 -5 -1 -10 4 -10 6 0 11 5 11 10 0 6 -2 10 -4 10 -3 0
-8 -4 -11 -10z"/>
<path d="M2340 5400 c0 -11 2 -20 4 -20 2 0 6 9 9 20 3 11 1 20 -4 20 -5 0 -9
-9 -9 -20z"/>
<path d="M2893 5395 c-7 -8 -9 -16 -4 -19 5 -3 12 1 15 10 8 22 4 25 -11 9z"/>
<path d="M2955 5379 c-5 -15 -10 -18 -18 -10 -13 13 -27 14 -27 2 0 -11 30
-19 48 -14 6 3 10 9 6 14 -3 5 2 9 11 9 9 0 13 5 10 10 -10 16 -23 11 -30 -11z"/>
<path d="M3050 5385 c0 -8 5 -17 10 -20 6 -3 10 -1 10 5 0 6 5 8 10 5 6 -3 10
-2 10 3 0 5 -9 12 -20 15 -13 3 -20 0 -20 -8z"/>
<path d="M8145 5540 c3 -5 8 -10 11 -10 2 0 4 5 4 10 0 6 -5 10 -11 10 -5 0
-7 -4 -4 -10z"/>
<path d="M8102 5519 c2 -6 8 -10 13 -10 5 0 11 4 13 10 2 6 -4 11 -13 11 -9 0
-15 -5 -13 -11z"/>
<path d="M8054 5514 c-7 -3 -10 -14 -7 -24 4 -16 7 -17 19 -5 24 24 17 41 -12
29z"/>
<path d="M8090 5464 c0 -8 5 -12 10 -9 6 3 10 10 10 16 0 5 -4 9 -10 9 -5 0
-10 -7 -10 -16z"/>
<path d="M8014 5399 c-8 -13 13 -36 23 -24 5 4 2 10 -5 12 -6 3 -10 9 -6 14 3
5 3 9 0 9 -3 0 -8 -5 -12 -11z"/>
<path d="M7980 5349 c0 -5 5 -7 10 -4 6 3 10 8 10 11 0 2 -4 4 -10 4 -5 0 -10
-5 -10 -11z"/>
<path d="M3410 5626 c0 -32 4 -36 68 -66 162 -78 245 -111 255 -101 18 18 -1
38 -56 64 -30 13 -100 50 -156 81 -56 31 -103 56 -106 56 -3 0 -5 -15 -5 -34z"/>
<path d="M6770 5582 c-114 -61 -146 -82 -148 -99 -2 -15 2 -23 11 -23 19 0
126 44 218 90 71 36 77 42 81 75 2 20 0 35 -7 34 -5 0 -75 -35 -155 -77z"/>
<path d="M6890 5530 c-19 -17 -87 -56 -152 -88 -98 -47 -118 -61 -118 -79 0
-34 26 -30 163 27 67 28 127 50 134 50 9 0 13 18 13 60 0 33 -1 60 -2 60 -2
-1 -19 -14 -38 -30z"/>
<path d="M3418 5543 c-4 -7 -3 -52 1 -83 0 -5 5 -10 11 -10 5 0 68 -25 138
-55 136 -58 157 -63 165 -42 9 23 -4 31 -118 86 -60 28 -123 62 -140 75 -43
32 -53 37 -57 29z"/>
<path d="M6552 5478 c-17 -17 -15 -48 4 -55 24 -9 46 24 33 48 -11 22 -20 24
-37 7z"/>
<path d="M3762 5453 c2 -22 8 -28 28 -28 20 0 25 5 25 25 0 20 -6 26 -28 28
-26 3 -28 1 -25 -25z"/>
<path d="M3857 5443 c-13 -12 -7 -51 9 -57 21 -8 34 1 34 23 0 28 -28 50 -43
34z"/>
<path d="M6453 5434 c-8 -20 9 -49 28 -49 8 0 15 13 17 33 3 27 0 32 -18 32
-11 0 -23 -7 -27 -16z"/>
<path d="M3944 5406 c-10 -26 1 -51 24 -54 17 -3 22 1 22 20 0 39 -35 64 -46
34z"/>
<path d="M6367 5414 c-4 -4 -7 -18 -7 -31 0 -20 5 -24 23 -21 16 2 22 10 22
28 0 24 -23 39 -38 24z"/>
<path d="M6274 5377 c3 -14 2 -29 -4 -32 -18 -11 -11 -35 10 -35 17 0 19 6 17
42 -2 24 -9 44 -16 46 -10 3 -12 -2 -7 -21z"/>
<path d="M4060 5380 c0 -5 5 -10 10 -10 6 0 10 5 10 10 0 6 -4 10 -10 10 -5 0
-10 -4 -10 -10z"/>
<path d="M3762 5368 c-30 -30 11 -85 44 -57 18 15 18 34 -2 53 -19 19 -26 20
-42 4z"/>
<path d="M6544 5354 c-8 -29 7 -49 31 -41 22 9 29 35 15 52 -19 23 -39 18 -46
-11z"/>
<path d="M4170 5360 c0 -5 5 -10 10 -10 6 0 10 5 10 10 0 6 -4 10 -10 10 -5 0
-10 -4 -10 -10z"/>
<path d="M6170 5360 c0 -5 5 -10 10 -10 6 0 10 5 10 10 0 6 -4 10 -10 10 -5 0
-10 -4 -10 -10z"/>
<path d="M4052 5333 c5 -26 38 -29 38 -4 0 15 -6 21 -21 21 -14 0 -19 -5 -17
-17z"/>
<path d="M3857 5334 c-15 -15 -6 -41 18 -52 28 -13 40 0 33 35 -3 18 -38 30
-51 17z"/>
<path d="M6457 5333 c-11 -10 -8 -51 4 -59 16 -10 51 29 43 49 -6 17 -35 23
-47 10z"/>
<path d="M3960 5295 c-19 -23 -8 -50 24 -53 26 -3 28 -1 23 20 -4 13 -7 26 -7
29 0 14 -29 17 -40 4z"/>
<path d="M4172 5298 c6 -18 28 -21 28 -4 0 9 -7 16 -16 16 -9 0 -14 -5 -12
-12z"/>
<path d="M6167 5303 c-12 -11 -8 -23 8 -23 8 0 15 7 15 15 0 16 -12 20 -23 8z"/>
<path d="M6362 5298 c-16 -16 -15 -33 3 -48 20 -17 47 5 43 34 -4 24 -28 32
-46 14z"/>
<path d="M4276 5283 c-11 -11 -6 -23 9 -23 8 0 15 4 15 9 0 13 -16 22 -24 14z"/>
<path d="M6065 5277 c-4 -10 -5 -21 -1 -24 10 -10 18 4 13 24 -4 17 -4 17 -12
0z"/>
<path d="M6262 5258 c-7 -7 -12 -20 -12 -31 0 -24 33 -19 38 7 5 24 -11 39
-26 24z"/>
<path d="M4062 5238 c4 -33 46 -38 44 -6 -1 16 -8 24 -24 26 -20 3 -23 0 -20
-20z"/>
<path d="M4390 5244 c0 -8 5 -12 10 -9 6 4 8 11 5 16 -9 14 -15 11 -15 -7z"/>
<path d="M4185 5220 c-8 -13 3 -30 21 -30 18 0 18 14 0 29 -10 8 -16 9 -21 1z"/>
<path d="M6143 5214 c-9 -23 11 -38 26 -20 13 16 7 36 -10 36 -5 0 -12 -7 -16
-16z"/>
<path d="M4290 5186 c0 -18 16 -29 30 -21 13 8 1 35 -16 35 -8 0 -14 -6 -14
-14z"/>
<path d="M6040 5180 c0 -11 4 -20 9 -20 11 0 22 26 14 34 -12 12 -23 5 -23
-14z"/>
<path d="M4402 5174 c1 -9 9 -19 16 -22 9 -3 13 2 10 14 -1 9 -9 19 -16 22 -9
3 -13 -2 -10 -14z"/>
<path d="M5937 5183 c-12 -11 -8 -23 8 -23 8 0 15 7 15 15 0 16 -12 20 -23 8z"/>
<path d="M5215 5170 c-3 -5 -1 -10 4 -10 6 0 11 5 11 10 0 6 -2 10 -4 10 -3 0
-8 -4 -11 -10z"/>
<path d="M5830 5170 c0 -5 7 -10 16 -10 8 0 12 5 9 10 -3 6 -10 10 -16 10 -5
0 -9 -4 -9 -10z"/>
<path d="M4505 5160 c3 -5 10 -10 16 -10 5 0 9 5 9 10 0 6 -7 10 -16 10 -8 0
-12 -4 -9 -10z"/>
<path d="M5725 5159 c-10 -15 3 -25 16 -12 7 7 7 13 1 17 -6 3 -14 1 -17 -5z"/>
<path d="M4092 5143 c4 -22 43 -25 43 -3 0 8 -11 16 -23 18 -19 3 -23 0 -20
-15z"/>
<path d="M4610 5151 c0 -6 5 -13 10 -16 6 -3 10 1 10 9 0 9 -4 16 -10 16 -5 0
-10 -4 -10 -9z"/>
<path d="M6225 5150 c-4 -7 -3 -16 3 -22 14 -14 45 -2 40 15 -6 16 -34 21 -43
7z"/>
<path d="M4710 5130 c0 -5 9 -10 21 -10 11 0 17 5 14 10 -3 6 -13 10 -21 10
-8 0 -14 -4 -14 -10z"/>
<path d="M4820 5126 c0 -9 5 -16 10 -16 6 0 10 4 10 9 0 6 -4 13 -10 16 -5 3
-10 -1 -10 -9z"/>
<path d="M5615 5130 c-3 -5 3 -10 14 -10 12 0 21 5 21 10 0 6 -6 10 -14 10 -8
0 -18 -4 -21 -10z"/>
<path d="M4201 5121 c-18 -12 -5 -31 20 -31 14 0 19 6 17 17 -4 20 -18 26 -37
14z"/>
<path d="M5505 5119 c-10 -15 1 -23 20 -15 9 3 13 10 10 16 -8 13 -22 13 -30
-1z"/>
<path d="M6117 5109 c-4 -15 -1 -19 11 -17 21 4 29 38 9 38 -8 0 -17 -9 -20
-21z"/>
<path d="M4930 5110 c0 -5 5 -10 11 -10 5 0 7 5 4 10 -3 6 -8 10 -11 10 -2 0
-4 -4 -4 -10z"/>
<path d="M5405 5110 c-11 -17 5 -32 21 -19 7 6 11 15 8 20 -7 12 -21 11 -29
-1z"/>
<path d="M5042 5099 c2 -7 10 -15 17 -17 8 -3 12 1 9 9 -2 7 -10 15 -17 17 -8
3 -12 -1 -9 -9z"/>
<path d="M5285 5101 c-6 -11 9 -23 19 -14 9 9 7 23 -3 23 -6 0 -12 -4 -16 -9z"/>
<path d="M4860 5055 c0 -8 5 -15 10 -15 6 0 10 7 10 15 0 8 -4 15 -10 15 -5 0
-10 -7 -10 -15z"/>
<path d="M4970 5045 c0 -8 5 -15 10 -15 6 0 10 7 10 15 0 8 -4 15 -10 15 -5 0
-10 -7 -10 -15z"/>
<path d="M5477 5053 c-12 -11 -8 -23 8 -23 8 0 15 7 15 15 0 16 -12 20 -23 8z"/>
<path d="M5352 5038 c6 -18 28 -21 28 -4 0 9 -7 16 -16 16 -9 0 -14 -5 -12
-12z"/>
<path d="M4892 4998 c6 -18 28 -21 28 -4 0 9 -7 16 -16 16 -9 0 -14 -5 -12
-12z"/>
<path d="M5426 4993 c-11 -11 -6 -23 9 -23 8 0 15 4 15 9 0 13 -16 22 -24 14z"/>
<path d="M2890 5180 c0 -5 5 -10 11 -10 5 0 7 5 4 10 -3 6 -8 10 -11 10 -2 0
-4 -4 -4 -10z"/>
<path d="M2910 5141 c0 -26 10 -51 21 -51 14 0 11 28 -3 34 -10 5 -10 7 0 12
17 8 15 24 -3 24 -8 0 -15 -9 -15 -19z"/>
<path d="M2869 5141 c12 -8 9 -11 -12 -16 -15 -4 -27 -14 -27 -22 0 -13 3 -13
15 -3 10 9 15 9 15 1 0 -6 11 -11 25 -11 14 0 25 5 25 10 0 6 -8 10 -17 10
-15 0 -16 2 -3 10 13 9 13 11 0 20 -8 5 -19 10 -25 10 -5 0 -3 -4 4 -9z"/>
<path d="M2950 5134 c0 -3 5 -14 11 -25 11 -22 31 -17 23 6 -5 13 -34 30 -34
19z"/>
<path d="M2605 5070 c3 -5 8 -10 11 -10 2 0 4 5 4 10 0 6 -5 10 -11 10 -5 0
-7 -4 -4 -10z"/>
<path d="M2680 5060 c0 -5 5 -10 11 -10 5 0 7 5 4 10 -3 6 -8 10 -11 10 -2 0
-4 -4 -4 -10z"/>
<path d="M7475 5131 c-3 -5 -1 -12 5 -16 5 -3 10 1 10 9 0 18 -6 21 -15 7z"/>
<path d="M7270 5019 c0 -5 5 -7 10 -4 6 3 10 8 10 11 0 2 -4 4 -10 4 -5 0 -10
-5 -10 -11z"/>
<path d="M5285 4216 c-9 -31 -15 -62 -13 -68 3 -7 11 17 20 53 20 80 15 91 -7
15z"/>
<path d="M5055 4250 c3 -5 8 -10 11 -10 2 0 4 5 4 10 0 6 -5 10 -11 10 -5 0
-7 -4 -4 -10z"/>
<path d="M4990 4236 c0 -8 4 -17 9 -20 5 -4 7 3 4 14 -6 23 -13 26 -13 6z"/>
<path d="M5330 4230 c0 -5 5 -10 10 -10 6 0 10 5 10 10 0 6 -4 10 -10 10 -5 0
-10 -4 -10 -10z"/>
<path d="M5361 4179 c-19 -42 -8 -46 12 -4 9 19 13 35 9 35 -4 0 -13 -14 -21
-31z"/>
<path d="M5318 4195 c-3 -6 -8 -26 -12 -45 l-6 -35 16 34 c14 30 16 68 2 46z"/>
<path d="M5260 4108 c0 -19 2 -20 10 -8 13 19 13 30 0 30 -5 0 -10 -10 -10
-22z"/>
<path d="M5250 4056 c-15 -41 -10 -56 6 -17 8 18 13 36 10 39 -3 2 -10 -7 -16
-22z"/>
<path d="M4104 4216 c11 -9 24 -16 30 -16 12 0 7 5 -24 19 -24 11 -24 11 -6
-3z"/>
<path d="M4150 4191 c0 -6 4 -11 8 -11 5 0 45 -24 90 -54 45 -29 82 -52 82
-50 0 5 -98 76 -142 103 -21 12 -38 18 -38 12z"/>
<path d="M4635 4280 c3 -5 8 -10 11 -10 2 0 4 5 4 10 0 6 -5 10 -11 10 -5 0
-7 -4 -4 -10z"/>
<path d="M4645 4249 c-4 -6 -5 -12 -2 -15 2 -3 7 2 10 11 7 17 1 20 -8 4z"/>
<path d="M4580 4175 c0 -8 4 -15 10 -15 5 0 7 7 4 15 -4 8 -8 15 -10 15 -2 0
-4 -7 -4 -15z"/>
<path d="M4590 4143 c0 -5 7 -17 15 -27 8 -11 15 -30 15 -44 0 -13 4 -20 10
-17 6 3 10 1 10 -4 0 -6 5 -11 12 -11 7 0 5 6 -4 18 -9 9 -21 34 -29 55 -11
32 -30 51 -29 30z"/>
<path d="M4570 4120 c0 -5 5 -10 11 -10 5 0 7 5 4 10 -3 6 -8 10 -11 10 -2 0
-4 -4 -4 -10z"/>
<path d="M4930 3861 c0 -6 4 -13 10 -16 6 -3 7 1 4 9 -7 18 -14 21 -14 7z"/>
<path d="M4935 3790 c10 -11 23 -20 28 -20 6 0 2 9 -8 20 -10 11 -23 20 -28
20 -6 0 -2 -9 8 -20z"/>
<path d="M6268 4244 c-16 -8 -28 -19 -28 -24 0 -17 16 -11 40 15 27 29 25 30
-12 9z"/>
<path d="M6173 4175 c-36 -32 -17 -32 22 0 17 13 25 24 18 25 -7 0 -25 -11
-40 -25z"/>
<path d="M6260 4165 c-13 -14 -19 -25 -13 -25 6 0 18 11 27 25 9 14 15 25 13
25 -2 0 -14 -11 -27 -25z"/>
<path d="M6190 4125 c-7 -8 -8 -15 -2 -15 5 0 15 7 22 15 7 8 8 15 2 15 -5 0
-15 -7 -22 -15z"/>
<path d="M6240 4095 c-7 -9 -11 -17 -9 -20 3 -2 10 5 17 15 14 24 10 26 -8 5z"/>
<path d="M5770 4189 c0 -5 5 -7 10 -4 6 3 10 8 10 11 0 2 -4 4 -10 4 -5 0 -10
-5 -10 -11z"/>
<path d="M5755 4059 c-4 -6 -5 -12 -2 -15 2 -3 7 2 10 11 7 17 1 20 -8 4z"/>
<path d="M5450 3882 c0 -7 -7 -12 -15 -12 -8 0 -15 -8 -15 -17 0 -15 3 -14 22
5 12 12 19 25 15 28 -4 4 -7 2 -7 -4z"/>
<path d="M5380 3836 c0 -18 17 -29 30 -21 8 5 7 11 -1 21 -15 18 -29 18 -29 0z"/>
<path d="M3355 4030 c-3 -5 1 -10 10 -10 9 0 13 5 10 10 -3 6 -8 10 -10 10 -2
0 -7 -4 -10 -10z"/>
<path d="M3435 3953 c11 -3 25 -10 32 -15 7 -5 18 -6 25 -2 14 9 -21 22 -57
22 l-20 0 20 -5z"/>
<path d="M6938 4013 c7 -3 16 -2 19 1 4 3 -2 6 -13 5 -11 0 -14 -3 -6 -6z"/>
<path d="M6935 3950 c3 -5 8 -10 11 -10 2 0 4 5 4 10 0 6 -5 10 -11 10 -5 0
-7 -4 -4 -10z"/>
<path d="M6890 3939 c0 -5 5 -7 10 -4 6 3 10 8 10 11 0 2 -4 4 -10 4 -5 0 -10
-5 -10 -11z"/>
<path d="M2926 2081 c-15 -16 -17 -52 -21 -290 -4 -265 -4 -272 17 -293 17
-17 29 -19 66 -15 60 7 72 25 72 107 0 58 3 70 25 90 24 23 25 23 46 4 12 -10
51 -55 88 -99 82 -100 88 -104 133 -105 50 0 87 18 94 47 7 26 -11 51 -145
207 l-73 86 106 103 c58 56 106 110 106 120 0 35 -36 57 -92 57 l-53 -1 -115
-111 -115 -112 -3 94 c-3 112 -14 130 -77 130 -28 0 -47 -6 -59 -19z"/>
<path d="M3923 2092 c-7 -5 -44 -75 -81 -158 -38 -82 -92 -199 -121 -260 -28
-61 -51 -119 -51 -128 0 -51 52 -77 115 -56 26 8 41 23 55 51 l20 39 121 0
120 0 14 -34 c19 -45 50 -66 98 -66 27 0 45 7 62 25 30 29 30 38 6 90 -10 22
-62 137 -116 255 -53 118 -104 223 -112 233 -17 18 -106 24 -130 9z m92 -284
c15 -35 29 -69 32 -75 4 -10 -12 -13 -61 -13 -36 0 -66 3 -66 7 0 16 54 143
60 143 4 0 20 -28 35 -62z"/>
<path d="M6262 2090 c-12 -5 -27 -21 -32 -35 -6 -15 -10 -138 -10 -281 0 -241
1 -255 20 -274 26 -26 80 -26 113 0 23 18 26 29 29 88 l3 67 95 5 c70 4 106
11 136 27 81 43 120 115 112 209 -8 95 -79 172 -179 193 -60 13 -255 13 -287
1z m278 -170 c11 -11 20 -31 20 -45 0 -46 -32 -65 -110 -65 l-70 0 0 65 0 65
70 0 c57 0 74 -4 90 -20z"/>
<path d="M7174 2076 c-33 -51 -236 -490 -241 -523 -8 -45 18 -73 66 -73 62 0
79 10 101 56 l20 45 123 -3 122 -3 18 -38 c20 -43 56 -61 105 -53 44 7 62 23
62 55 0 33 -208 505 -237 537 -18 19 -32 24 -72 24 -43 0 -53 -4 -67 -24z
m127 -333 c8 -23 7 -23 -61 -23 l-70 0 10 24 c5 14 21 49 36 78 l27 53 25 -55
c13 -30 28 -65 33 -77z"/>
<path d="M4612 2078 c-19 -19 -17 -561 2 -577 25 -21 83 -25 110 -7 22 14 25
24 28 88 l3 73 100 6 c109 6 135 14 182 53 50 42 76 110 70 180 -7 79 -44 132
-116 169 -53 26 -60 27 -211 27 -108 0 -160 -4 -168 -12z m308 -158 c24 -24
26 -67 3 -92 -13 -14 -31 -18 -90 -18 l-73 0 0 65 0 65 70 0 c57 0 74 -4 90
-20z"/>
<path d="M5426 2068 c-14 -19 -16 -63 -16 -281 l0 -258 25 -24 c26 -27 49 -31
92 -14 38 14 43 25 43 102 l0 67 90 0 c100 0 147 14 193 58 45 42 67 94 67
157 0 67 -24 119 -74 163 -50 44 -91 52 -258 52 -140 0 -148 -1 -162 -22z
m302 -144 c26 -18 30 -74 7 -98 -19 -19 -68 -29 -120 -24 l-40 3 -3 68 -3 67
68 0 c46 0 76 -5 91 -16z"/>
<path d="M1945 1838 c-28 -16 -35 -28 -35 -64 0 -59 21 -66 193 -68 139 -1
157 1 176 18 21 19 28 69 13 93 -4 6 -20 17 -35 22 -38 15 -286 14 -312 -1z"/>
<path d="M8077 1830 c-52 -41 -26 -112 46 -125 19 -4 89 -5 155 -3 137 3 162
15 162 73 0 61 -23 70 -189 73 -137 3 -148 2 -174 -18z"/>
<path d="M4025 1436 c-40 -17 -58 -41 -58 -77 0 -40 37 -77 87 -87 55 -10 64
-42 12 -42 -20 0 -45 5 -55 12 -15 9 -23 9 -35 -1 -24 -20 -19 -37 18 -60 49
-31 108 -28 145 7 63 57 43 114 -53 149 -26 10 -48 23 -47 28 1 15 47 18 71 5
25 -14 50 2 50 31 0 35 -85 57 -135 35z"/>
<path d="M5670 1443 c-36 -13 -60 -47 -60 -84 0 -44 18 -60 93 -85 26 -9 46
-21 44 -27 -6 -19 -63 -20 -90 -2 -23 15 -26 14 -41 0 -23 -24 -5 -50 49 -71
38 -14 52 -15 85 -5 58 17 84 64 64 116 -7 17 -63 48 -106 59 -36 8 -37 36 -2
36 14 0 33 -4 43 -10 20 -10 61 12 61 34 0 27 -99 54 -140 39z"/>
<path d="M6053 1434 c-52 -26 -63 -97 -22 -131 8 -6 37 -18 64 -26 29 -8 50
-20 50 -28 0 -19 -52 -24 -81 -8 -50 26 -76 -26 -29 -57 14 -9 44 -18 68 -21
74 -7 139 53 118 110 -13 33 -35 49 -89 62 -29 8 -48 18 -50 29 -4 19 18 21
64 4 55 -20 88 26 42 56 -37 24 -99 29 -135 10z"/>
<path d="M6494 1436 c-62 -27 -101 -107 -83 -170 12 -44 68 -93 115 -102 51
-9 122 21 151 65 35 51 31 111 -8 156 -52 59 -114 77 -175 51z m89 -67 c24
-11 47 -47 47 -73 0 -28 -41 -66 -71 -66 -37 0 -79 40 -79 75 0 28 40 75 64
75 8 0 26 -5 39 -11z"/>
<path d="M3577 1434 c-4 -4 -7 -63 -7 -130 0 -146 -2 -144 115 -144 83 0 115
11 115 39 0 25 -19 31 -91 31 -56 0 -59 1 -59 24 0 23 4 25 53 28 44 3 52 6
52 23 0 17 -8 20 -52 23 -48 3 -53 5 -53 27 0 23 4 24 68 27 64 3 67 4 67 28
0 25 -1 25 -101 28 -55 1 -103 0 -107 -4z"/>
<path d="M4367 1433 c-4 -3 -7 -64 -7 -134 l0 -129 27 -6 c31 -8 53 15 53 58
0 26 3 28 43 28 94 0 141 114 70 170 -21 16 -41 20 -103 20 -42 0 -80 -3 -83
-7z m141 -82 c4 -28 -12 -41 -50 -41 -25 0 -28 3 -28 36 0 35 1 35 38 32 30
-2 38 -7 40 -27z"/>
<path d="M4774 1427 c-2 -7 -3 -66 -2 -132 3 -99 6 -120 21 -129 26 -17 51 4
55 48 4 48 31 48 63 -1 20 -31 31 -39 62 -41 45 -4 48 10 12 58 l-24 33 24 29
c34 41 34 91 -1 123 -24 23 -35 25 -116 25 -64 0 -90 -4 -94 -13z m159 -61 c9
-24 -22 -56 -54 -56 -27 0 -29 3 -29 35 0 34 1 35 39 35 24 0 41 -5 44 -14z"/>
<path d="M5207 1433 c-11 -10 -8 -233 3 -254 9 -17 22 -19 99 -19 93 0 116 10
109 47 -3 15 -15 19 -71 21 -63 3 -67 4 -67 27 0 21 5 24 48 27 40 3 47 6 50
26 3 20 0 22 -47 22 -48 0 -51 2 -51 25 0 24 2 25 64 25 66 0 83 11 70 45 -5
12 -26 15 -103 15 -54 0 -101 -3 -104 -7z"/>
<path d="M6352 3024 c-13 -26 -5 -44 20 -44 15 0 18 4 13 23 -11 34 -22 41
-33 21z"/>
<path d="M4392 2997 c-14 -16 -1 -37 20 -33 26 3 32 14 18 31 -15 18 -24 19
-38 2z"/>
<path d="M6241 2982 c-12 -22 -6 -32 21 -32 14 0 19 6 16 22 -4 29 -24 34 -37
10z"/>
<path d="M4060 2975 c0 -9 9 -15 25 -15 16 0 25 6 25 15 0 9 -9 15 -25 15 -16
0 -25 -6 -25 -15z"/>
<path d="M5665 2970 c-3 -5 -1 -10 4 -10 6 0 11 5 11 10 0 6 -2 10 -4 10 -3 0
-8 -4 -11 -10z"/>
<path d="M4173 2954 c-8 -21 13 -42 28 -27 13 13 5 43 -11 43 -6 0 -13 -7 -17
-16z"/>
<path d="M4790 2960 c0 -5 5 -10 10 -10 6 0 10 5 10 10 0 6 -4 10 -10 10 -5 0
-10 -4 -10 -10z"/>
<path d="M6130 2940 c0 -13 7 -20 20 -20 13 0 20 7 20 20 0 13 -7 20 -20 20
-13 0 -20 -7 -20 -20z"/>
<path d="M4281 2937 c-14 -17 3 -41 23 -34 9 4 16 13 16 21 0 19 -26 28 -39
13z"/>
<path d="M5700 2930 c0 -5 9 -10 20 -10 11 0 20 5 20 10 0 6 -9 10 -20 10 -11
0 -20 -4 -20 -10z"/>
<path d="M5590 2921 c0 -15 16 -22 34 -15 25 9 19 24 -9 24 -14 0 -25 -4 -25
-9z"/>
<path d="M6022 2913 c4 -22 43 -25 43 -3 0 8 -11 16 -23 18 -19 3 -23 0 -20
-15z"/>
<path d="M4391 2906 c-8 -10 -7 -17 3 -26 17 -13 36 -6 36 15 0 19 -27 26 -39
11z"/>
<path d="M4826 2911 c-3 -5 3 -11 14 -14 21 -5 32 1 24 14 -7 12 -31 11 -38 0z"/>
<path d="M5475 2910 c-8 -12 20 -24 35 -15 5 3 10 10 10 16 0 12 -37 12 -45
-1z"/>
<path d="M4935 2900 c-8 -12 20 -24 35 -15 6 3 8 11 5 16 -8 12 -32 12 -40 -1z"/>
<path d="M5045 2900 c-8 -12 20 -24 35 -15 6 3 8 11 5 16 -8 12 -32 12 -40 -1z"/>
<path d="M5267 2903 c-13 -12 -7 -23 13 -23 11 0 20 7 20 15 0 15 -21 21 -33
8z"/>
<path d="M5370 2894 c0 -9 7 -14 17 -12 25 5 28 28 4 28 -12 0 -21 -6 -21 -16z"/>
<path d="M5917 2903 c-14 -13 -7 -33 11 -33 24 0 32 8 25 26 -5 15 -25 19 -36
7z"/>
<path d="M4495 2890 c-9 -15 4 -30 26 -30 23 0 26 25 3 34 -21 8 -22 8 -29 -4z"/>
<path d="M5805 2880 c-8 -14 3 -30 21 -30 8 0 14 9 14 20 0 21 -24 28 -35 10z"/>
<path d="M4605 2871 c-8 -15 3 -31 21 -31 9 0 14 7 12 17 -4 20 -24 28 -33 14z"/>
<path d="M5695 2860 c-4 -7 -3 -16 3 -22 14 -14 45 -2 40 15 -6 16 -34 21 -43
7z"/>
<path d="M4715 2850 c-4 -7 -3 -16 3 -22 14 -14 45 -2 40 15 -6 16 -34 21 -43
7z"/>
<path d="M5597 2854 c-14 -15 -6 -34 14 -34 14 0 19 5 17 17 -3 18 -20 27 -31
17z"/>
<path d="M4824 2839 c-9 -16 12 -33 31 -25 14 5 15 9 5 21 -15 18 -26 19 -36
4z"/>
<path d="M5483 2834 c-8 -20 8 -36 26 -25 15 10 8 41 -9 41 -6 0 -13 -7 -17
-16z"/>
<path d="M4940 2819 c0 -24 23 -21 28 4 2 10 -3 17 -12 17 -10 0 -16 -9 -16
-21z"/>
<path d="M5377 2834 c-14 -14 -7 -35 11 -32 9 2 17 10 17 17 0 16 -18 25 -28
15z"/>
<path d="M5050 2815 c0 -8 7 -15 15 -15 8 0 15 7 15 15 0 8 -7 15 -15 15 -8 0
-15 -7 -15 -15z"/>
<path d="M5156 2821 c-7 -11 18 -33 27 -24 4 3 7 12 7 20 0 15 -26 18 -34 4z"/>
<path d="M5267 2824 c-13 -13 -7 -24 14 -24 11 0 19 5 17 12 -5 14 -22 21 -31
12z"/>
</g>
</svg>
